<svg width="36" height="34" viewBox="0 0 36 34" fill="none" xmlns="http://www.w3.org/2000/svg">
<g clip-path="url(#clip0_1633_28)">
<path d="M32.8002 16.6102C32.8002 12.9102 30.9402 9.66016 28.1102 7.71016C26.3602 3.43016 22.1502 0.410156 17.2402 0.410156C12.9302 0.410156 9.17016 2.74016 7.13016 6.20016C3.20016 7.71016 0.410156 11.5102 0.410156 15.9702C0.410156 19.4502 2.11016 22.5202 4.72016 24.4302C6.17016 29.2702 10.6602 32.8002 15.9702 32.8002C20.5102 32.8002 24.4302 30.2302 26.3902 26.4602C30.1602 24.7802 32.8002 21.0002 32.8002 16.6002V16.6102Z" fill="#FBFAFB" stroke="#A48295" stroke-width="0.82" stroke-miterlimit="10"/>
<path d="M27.2208 31.6501C29.938 31.6501 32.1408 29.4473 32.1408 26.7301C32.1408 24.0128 29.938 21.8101 27.2208 21.8101C24.5035 21.8101 22.3008 24.0128 22.3008 26.7301C22.3008 29.4473 24.5035 31.6501 27.2208 31.6501Z" fill="#FBFAFB" stroke="#A48295" stroke-width="0.82" stroke-miterlimit="10"/>
<path d="M32.6914 31.0898C34.0721 31.0898 35.1914 29.9706 35.1914 28.5898C35.1914 27.2091 34.0721 26.0898 32.6914 26.0898C31.3107 26.0898 30.1914 27.2091 30.1914 28.5898C30.1914 29.9706 31.3107 31.0898 32.6914 31.0898Z" fill="#FBFAFB" stroke="#A48295" stroke-width="0.82" stroke-miterlimit="10"/>
<path d="M24.2101 15.12C22.6101 10.88 17.4001 12.78 16.9201 14.9C16.2601 12.64 11.1801 10.96 9.63014 15.12C7.91014 19.76 16.3101 23.92 16.9201 24.6C17.5201 24.06 25.9301 19.68 24.2101 15.12Z" fill="#FACFE5" stroke="#A48295" stroke-linecap="round" stroke-linejoin="round"/>
</g>
<defs>
<clipPath id="clip0_1633_28">
<rect width="35.59" height="33.21" fill="white"/>
</clipPath>
</defs>
</svg>
