<svg width="41" height="30" viewBox="0 0 41 30" fill="none" xmlns="http://www.w3.org/2000/svg">
<g clip-path="url(#clip0_1633_34)">
<path d="M23.0918 10.5802C26.6518 6.45018 30.3318 3.02018 34.2218 0.77018C35.1518 0.23018 36.3518 0.51018 36.9718 1.44018C40.2918 6.38018 40.8718 12.4002 39.6918 19.1102C39.4818 20.3202 38.3418 21.0802 37.1818 20.7802L25.2118 17.6602C24.4818 17.4702 23.8918 16.8802 23.6618 16.1302L22.6418 12.6702C22.4218 11.9302 22.5918 11.1402 23.0718 10.5802H23.0918Z" fill="#908E90" stroke="#717173" stroke-miterlimit="10"/>
<path d="M17.0616 12.5202C11.8716 11.1202 6.95159 10.3402 2.47159 10.6102C1.40159 10.6702 0.541594 11.5302 0.501594 12.6002C0.311594 18.2802 3.01159 23.3702 7.55159 28.0902C8.37159 28.9402 9.73159 28.9402 10.5516 28.0902L19.0016 19.2802C19.5216 18.7402 19.7116 17.9602 19.4916 17.2402L18.5216 13.9502C18.3116 13.2502 17.7516 12.7102 17.0516 12.5202H17.0616Z" fill="#908E90" stroke="#717173" stroke-miterlimit="10"/>
<path d="M14.3689 17.2698C14.6489 17.7698 15.8889 17.6098 17.1389 16.9198C18.3889 16.2298 18.8989 14.7498 18.8989 14.7498C18.8989 14.7498 17.3789 14.4098 16.1289 15.0998C14.8789 15.7898 14.0889 16.7698 14.3689 17.2698Z" fill="#908E90" stroke="#717173" stroke-miterlimit="10"/>
<path d="M28.0706 13.5599C28.1106 14.1499 26.9906 14.6899 25.5606 14.7799C24.1306 14.8699 22.8906 13.8799 22.8906 13.8799C22.8906 13.8799 23.9706 12.7499 25.4006 12.6599C26.8306 12.5699 28.0206 12.9799 28.0706 13.5599Z" fill="#908E90" stroke="#717173" stroke-miterlimit="10"/>
<path d="M20.7987 11.5363L19.6285 11.8812C18.3041 12.2715 17.5469 13.6615 17.9372 14.9859L18.4827 16.8372C18.873 18.1616 20.2631 18.9189 21.5875 18.5286L22.7577 18.1837C24.0821 17.7934 24.8393 16.4034 24.449 15.079L23.9035 13.2277C23.5132 11.9033 22.1231 11.146 20.7987 11.5363Z" fill="#908E90" stroke="#717173" stroke-miterlimit="10"/>
</g>
<defs>
<clipPath id="clip0_1633_34">
<rect width="40.76" height="29.23" fill="white"/>
</clipPath>
</defs>
</svg>
