<?xml version="1.0" encoding="UTF-8"?>
<svg id="_レイヤー_2" data-name="レイヤー 2" xmlns="http://www.w3.org/2000/svg" viewBox="0 0 55.54 21.81">
  <defs>
    <style>
      .cls-1 {
        fill: #661b1b;
        stroke-width: 0px;
      }
    </style>
  </defs>
  <g id="_レイヤー_2-2" data-name="レイヤー 2">
    <g>
      <path class="cls-1" d="M55.54,12.19s-8.35-7.02-19.97-4.85c0,0,1.46,5.64-5.54,6.05.07-.56.07-1.65-.54-3.1,0,0,.03.77-.59,1.85-.32-.22-.71-.35-1.13-.35s-.81.13-1.13.35c-.63-1.07-.59-1.85-.59-1.85-.62,1.48-.6,2.6-.53,3.14-7.01-.4-5.55-6.05-5.55-6.05C8.35,5.21,0,12.23,0,12.23c8.94-3.43,9.36,1.25,9.36,1.25,5.1-1.92,5.48,2.52,5.48,2.52,4.68-3.68,5.76,1.59,5.76,1.59.95-.68,1.86-1.01,2.69-1.13,2.87.63,4.48,5.35,4.48,5.35,0,0,1.65-4.84,4.59-5.37.8.13,1.66.47,2.57,1.11,0,0,1.09-5.26,5.76-1.59,0,0,.39-4.44,5.48-2.52,0,0,.42-4.68,9.36-1.25Z"/>
      <polygon class="cls-1" points="27.77 0 24.82 4.2 27.77 8.4 30.72 4.2 27.77 0"/>
    </g>
  </g>
</svg>