<?xml version="1.0" encoding="UTF-8"?>
<svg id="_レイヤー_2" data-name="レイヤー 2" xmlns="http://www.w3.org/2000/svg" viewBox="0 0 33.53 13.17">
  <defs>
    <style>
      .cls-1 {
        fill: #757575;
        stroke-width: 0px;
      }
    </style>
  </defs>
  <g id="_レイヤー_2-2" data-name="レイヤー 2">
    <g>
      <path class="cls-1" d="M33.53,7.36s-5.04-4.24-12.06-2.93c0,0,.88,3.41-3.35,3.65.04-.34.04-1-.32-1.87,0,0,.02.47-.36,1.11-.19-.13-.43-.21-.68-.21s-.49.08-.68.21c-.38-.65-.36-1.11-.36-1.11-.37.9-.36,1.57-.32,1.9-4.23-.24-3.35-3.65-3.35-3.65C5.04,3.15,0,7.38,0,7.38c5.4-2.07,5.65.76,5.65.76,3.08-1.16,3.31,1.52,3.31,1.52,2.82-2.22,3.48.96,3.48.96.58-.41,1.13-.61,1.63-.68,1.74.38,2.71,3.23,2.71,3.23,0,0,.99-2.92,2.77-3.24.48.08,1,.28,1.55.67,0,0,.66-3.18,3.48-.96,0,0,.23-2.68,3.31-1.52,0,0,.25-2.82,5.65-.76Z"/>
      <polygon class="cls-1" points="16.77 0 14.99 2.54 16.77 5.07 18.55 2.54 16.77 0"/>
    </g>
  </g>
</svg>