<svg width="32" height="32" viewBox="0 0 32 32" fill="none" xmlns="http://www.w3.org/2000/svg">
<circle cx="16" cy="16" r="15" fill="#FFF9E9" stroke="#AF8384" stroke-width="2"/>
<path d="M24.5354 13.5738C24.5354 11.9681 23.2242 10.666 21.6065 10.666C20.5339 10.666 19.5963 11.2386 19.086 12.0922C18.1567 11.695 17.1098 11.4715 16.0021 11.4715C14.8944 11.4715 13.8478 11.6953 12.9182 12.0922C12.4078 11.2386 11.4702 10.666 10.3977 10.666C8.77993 10.666 7.46875 11.9677 7.46875 13.5738C7.46875 14.7548 8.17791 15.7715 9.19672 16.2266C9.09885 16.6276 9.04698 17.0429 9.04698 17.4689C9.04698 20.781 11.0578 23.466 16.0021 23.466C20.9464 23.466 22.9572 20.781 22.9572 17.4689C22.9572 17.0429 22.9053 16.6276 22.8074 16.2266C23.8263 15.7715 24.5354 14.7548 24.5354 13.5738Z" fill="#AF8384"/>
</svg>
