<svg width="32" height="32" viewBox="0 0 32 32" fill="none" xmlns="http://www.w3.org/2000/svg">
<circle cx="16" cy="16" r="15" fill="#FFE6A5" stroke="#AF8384" stroke-width="2"/>
<path d="M25.7867 12.9861C25.0506 10.7745 22.6183 9.56333 20.352 10.2778C20.352 10.2564 20.3536 10.2358 20.3536 10.2144C20.3536 7.88674 18.4201 6 16.0348 6C13.6495 6 11.72 7.88292 11.7161 10.2075C11.6957 10.2007 11.6753 10.193 11.655 10.1861C9.38634 9.46705 6.95013 10.6783 6.21245 12.8921C5.47634 15.1036 6.71442 17.4786 8.97835 18.2C8.96504 18.2168 8.95173 18.2329 8.9392 18.2504C7.53745 20.1334 7.96502 22.769 9.89457 24.1376C11.8226 25.504 14.5195 25.089 15.9229 23.2107C15.9354 23.2283 15.9471 23.2458 15.9597 23.2626C17.3614 25.1456 20.0623 25.5628 21.9926 24.1949C23.9206 22.8286 24.349 20.1968 22.9527 18.3139C22.9731 18.3077 22.9942 18.3024 23.0146 18.2955C25.2832 17.5764 26.5244 15.1983 25.7875 12.9845L25.7867 12.9861ZM15.9996 18.5637C14.525 18.5637 13.33 17.3976 13.33 15.9587C13.33 14.5198 14.525 13.3536 15.9996 13.3536C17.4742 13.3536 18.6692 14.5198 18.6692 15.9587C18.6692 17.3976 17.4742 18.5637 15.9996 18.5637Z" fill="#AF8384"/>
</svg>
