<svg width="72" height="37" viewBox="0 0 72 37" fill="none" xmlns="http://www.w3.org/2000/svg">
<path d="M10.0422 6.8585L10.0426 6.8584C12.2871 6.21567 14.5314 7.8824 14.5314 10.2426V15.725C14.5314 19.4162 17.4878 22.3884 21.1094 22.3884C24.7323 22.3884 27.6873 19.4149 27.6873 15.725V13.6874C27.6873 11.2436 29.65 9.24258 32.0938 9.24258H34.2218C36.6655 9.24258 38.6282 11.2436 38.6282 13.6874C38.6282 17.1819 41.103 19.1305 43.4464 19.1305C44.8352 19.1305 46.2358 18.5003 47.2977 17.4692C48.3586 16.439 49.0137 15.0756 49.0137 13.6858C49.0137 11.7649 50.7573 9.24419 53.7278 9.24419C55.4001 9.24419 56.6432 10.147 57.431 11.1697C58.1985 12.1659 58.6347 13.4001 58.6347 14.3435V29.7364C58.6347 33.2055 61.4128 36 64.8174 36C68.2206 36 71 33.2068 71 29.7364V15.0882C71 10.2399 68.7087 6.7524 65.5157 4.44403C62.2921 2.11356 58.1581 1 54.6188 1H2.18041C1.38804 1 0.807203 1.79169 1.06101 2.56081M10.0422 6.8585L1.06101 2.56081M10.0422 6.8585C8.10712 7.41342 6.2348 7.46522 4.69113 6.85243C3.18831 6.25587 1.85779 4.97518 1.06101 2.56081M10.0422 6.8585L0.111375 2.87418L1.06101 2.56081" fill="#FFCE95" stroke="#AF8384" stroke-width="2"/>
</svg>
