<svg width="72" height="37" viewBox="0 0 72 37" fill="none" xmlns="http://www.w3.org/2000/svg">
<path fill-rule="evenodd" clip-rule="evenodd" d="M10.3179 7.81976C11.9278 7.35873 13.5314 8.55161 13.5314 10.2426V15.725C13.5314 19.958 16.9251 23.3884 21.1094 23.3884C25.2953 23.3884 28.6873 19.9564 28.6873 15.725V13.6874C28.6873 11.7853 30.2128 10.2426 32.0938 10.2426H34.2218C36.1027 10.2426 37.6282 11.7853 37.6282 13.6874C37.6282 17.7206 40.5373 20.1305 43.4464 20.1305C46.8177 20.1305 50.0137 17.0952 50.0137 13.6858C50.0137 12.2495 51.375 10.2442 53.7278 10.2442C56.2814 10.2442 57.6347 12.9733 57.6347 14.3435V29.7364C57.6347 33.747 60.8498 37 64.8174 37C68.7833 37 72 33.7486 72 29.7364V15.0882C72 4.66026 62.0645 0 54.6188 0H2.18041C0.705944 0 -0.355673 1.45885 0.111375 2.87418C1.8632 8.18246 6.18618 9.00457 10.3179 7.81976ZM9.76657 5.89725L9.76728 5.89704C12.6463 5.0726 15.5314 7.21319 15.5314 10.2426V15.725C15.5314 18.8744 18.0505 21.3884 21.1094 21.3884C24.1693 21.3884 26.6873 18.8733 26.6873 15.725V13.6874C26.6873 10.7019 29.0872 8.24258 32.0938 8.24258H34.2218C37.2284 8.24258 39.6282 10.7019 39.6282 13.6874C39.6282 16.6431 41.6687 18.1305 43.4464 18.1305C44.5384 18.1305 45.6977 17.6289 46.601 16.7518C47.5026 15.8764 48.0137 14.7607 48.0137 13.6858C48.0137 11.2804 50.1397 8.24419 53.7278 8.24419C55.7957 8.24419 57.305 9.36755 58.2232 10.5595C59.1005 11.6983 59.6347 13.1418 59.6347 14.3435V29.7364C59.6347 32.6639 61.9758 35 64.8174 35C67.6579 35 70 32.665 70 29.7364V15.0882C70 10.6056 67.9012 7.40261 64.9298 5.25443C61.8972 3.06205 57.9746 2 54.6188 2H2.18041C2.14696 2 2.12499 2.00713 2.10648 2.01695C2.08469 2.02851 2.06003 2.04846 2.03896 2.07763C2.01795 2.10671 2.00649 2.13666 2.00218 2.16205C1.99852 2.18367 1.9983 2.21005 2.01064 2.24744C2.72831 4.42209 3.87064 5.45082 5.06009 5.92299C6.33124 6.42759 7.96221 6.41467 9.76657 5.89725Z" fill="#AF8384"/>
</svg>
