<svg width="23" height="68" viewBox="0 0 23 68" fill="none" xmlns="http://www.w3.org/2000/svg">
<path fill-rule="evenodd" clip-rule="evenodd" d="M23 15.6839V12.3524L0 23.0671V26.3985L23 15.6839ZM0 35.9122V32.5807L23 21.8661V25.1975L0 35.9122ZM0 45.4258V42.0944L23 31.3798V34.7112L0 45.4258ZM0 54.9395V51.6081L23 40.8934V44.2248L0 54.9395ZM0 64.4546V61.1231L23 50.4085V53.7399L0 64.4546ZM12.8113 68H5.66011L23 59.9221V63.2536L12.8113 68ZM0 16.8848L23 6.17021V2.83879L0 13.5534V16.8848ZM0 7.37119L15.823 0H8.67175L0 4.03977V7.37119Z" fill="#E07124"/>
</svg>
