<svg width="13" height="13" viewBox="0 0 13 13" fill="none" xmlns="http://www.w3.org/2000/svg">
<path fill-rule="evenodd" clip-rule="evenodd" d="M10.6109 8.35404L10.4925 8.23615C10.1128 7.85789 9.73698 7.57264 9.37858 7.35727L7.9522 6.50012L9.37858 5.64298C9.73698 5.42761 10.1128 5.14236 10.4925 4.7641C11.7988 3.46293 11.9996 1.94813 11.9832 1.0523C11.1054 1.02801 9.60233 1.2174 8.25966 2.55477C7.87402 2.93888 7.58422 3.31952 7.36415 3.68388L6.48944 5.13204L5.6425 3.66746C5.42778 3.29615 5.15063 2.9189 4.78505 2.55477L4.78437 2.55409C3.28944 1.0622 1.79691 0.948186 1.01312 1.01338C0.948526 1.79172 1.06363 3.27435 2.55929 4.7641C2.92901 5.13236 3.31388 5.40914 3.6979 5.62099L5.27899 6.49322L3.70076 7.37061C3.32437 7.57986 2.94024 7.85992 2.55761 8.23782C1.06168 9.72559 0.948286 11.2121 1.01335 11.9866C1.79236 12.0519 3.29092 11.9372 4.7886 10.4455C5.15412 10.0814 5.42835 9.7071 5.63614 9.33688L6.47994 7.83351L7.36599 9.31238C7.58631 9.68011 7.875 10.0619 8.26037 10.4427L8.26321 10.4455C9.56996 11.7471 11.096 11.9472 11.9984 11.931C12.0207 11.0844 11.8419 9.65518 10.6109 8.35404ZM12.1982 8.8107C12.9465 10.0944 13.0318 11.3498 12.992 12.1109C12.9672 12.5558 12.6091 12.9089 12.1625 12.9266C11.1309 12.9689 9.19883 12.7888 7.5575 11.154C7.40756 11.0058 7.26961 10.8569 7.14256 10.7078C6.89114 10.4127 6.68245 10.1172 6.50817 9.82633C6.34026 10.1255 6.13764 10.4247 5.89294 10.7186C5.77084 10.8652 5.63827 11.0106 5.4943 11.154C3.6509 12.9901 1.74369 13.0784 0.786535 12.9689C0.389494 12.923 0.0775337 12.6123 0.0314486 12.2168C-0.0784466 11.2634 0.00663364 9.36377 1.85358 7.52765C2.00358 7.37943 2.15477 7.24316 2.30677 7.11789C2.60739 6.87014 2.91113 6.66545 3.21486 6.49659C2.90908 6.3279 2.60329 6.12501 2.30371 5.87966C2.1518 5.75525 2.00149 5.61992 1.85358 5.4726C0.00663364 3.63295 -0.0784466 1.7368 0.0314486 0.779897C0.0739887 0.387956 0.389494 0.0736965 0.78299 0.0313244C1.74369 -0.0781367 3.64735 0.00660741 5.49076 1.84626C5.63482 1.98975 5.76747 2.13521 5.88977 2.28171C6.13462 2.57501 6.33795 2.8725 6.50817 3.16686C6.68249 2.87827 6.89123 2.585 7.14169 2.2912C7.26816 2.14284 7.40527 1.99435 7.55395 1.84626C9.24137 0.165503 11.1592 0.00307639 12.1766 0.0595725C12.6127 0.0842895 12.9601 0.43739 12.9778 0.868173C13.0239 1.89216 12.8502 3.82715 11.1982 5.4726C11.0881 5.58231 10.9777 5.6857 10.8673 5.78313C10.8333 5.8132 10.7992 5.84269 10.7652 5.87164C10.5756 6.03277 10.3862 6.1766 10.1982 6.30486C10.0962 6.37444 9.99465 6.43944 9.89365 6.50012C9.99465 6.56081 10.0962 6.62581 10.1982 6.69539C10.3862 6.82365 10.5756 6.96748 10.7652 7.12861C10.9084 7.25033 11.0517 7.38191 11.1947 7.52412C11.1953 7.52471 11.1959 7.5253 11.1965 7.52589C11.197 7.52647 11.1976 7.52706 11.1982 7.52765V7.52412C11.1988 7.5247 11.1994 7.52529 11.2 7.52588C11.2006 7.52647 11.2012 7.52706 11.2018 7.52765C11.6219 7.94679 11.9473 8.38033 12.1982 8.8107Z" fill="#A28E8E"/>
</svg>
