<svg width="13" height="13" viewBox="0 0 13 13" fill="none" xmlns="http://www.w3.org/2000/svg">
<path d="M6.81483 10.291C7.0228 10.5784 7.26778 10.8677 7.5575 11.154C9.19883 12.7888 11.1309 12.9689 12.1625 12.9266C12.6091 12.9089 12.9672 12.5558 12.992 12.1109L6.81483 10.291ZM6.81483 10.291C6.8599 10.2178 6.903 10.1445 6.94419 10.0711L6.50817 9.82633L6.07927 10.0833C6.122 10.1546 6.16661 10.2262 6.21321 10.2978C6.01235 10.5874 5.77498 10.8744 5.4943 11.154C3.6509 12.9901 1.74369 13.0784 0.786535 12.9689C0.389494 12.923 0.0775337 12.6123 0.0314486 12.2168L6.81483 10.291ZM2.73363 6.79549C2.43774 6.99944 2.14342 7.24124 1.85358 7.52765L2.73363 6.79549ZM2.73363 6.79549C2.81346 6.84403 2.8934 6.89029 2.97335 6.93439L3.21486 6.49659L2.97192 6.05958C2.89183 6.10411 2.81184 6.15087 2.732 6.19997C2.4341 5.99711 2.13935 5.75724 1.85358 5.4726C0.0066336 3.63295 -0.0784465 1.7368 0.0314486 0.779897C0.0739887 0.387956 0.389494 0.0736965 0.78299 0.0313244C1.74369 -0.0781367 3.64735 0.0066074 5.49076 1.84626C5.77149 2.12588 6.0089 2.41294 6.21076 2.70068C6.1654 2.77004 6.12191 2.83928 6.08019 2.90835L6.50817 3.16686L6.94101 2.91655C6.90055 2.84658 6.85834 2.77643 6.81431 2.70622C7.02208 2.42065 7.26636 2.13271 7.55395 1.84626C9.24137 0.165503 11.1592 0.00307639 12.1766 0.0595725L2.73363 6.79549ZM10.8454 7.8819L10.9691 8.00515C12.3945 9.5078 12.54 11.1761 12.4927 12.0839C12.4819 12.2712 12.3315 12.4195 12.1427 12.4269L12.1419 12.427C11.1854 12.4663 9.41512 12.2986 7.91035 10.7997L7.90894 10.7983C7.49291 10.3872 7.17841 9.97214 6.93708 9.56935L6.49406 8.82992L6.07216 9.58161C5.84241 9.99094 5.54046 10.4023 5.14145 10.7997C3.433 12.5014 1.69218 12.5692 0.84363 12.4722C0.676018 12.4527 0.547263 12.3227 0.528112 12.1592C0.430899 11.3151 0.495266 9.58338 2.20556 7.88277C2.62023 7.47311 3.04096 7.16535 3.45781 6.9336L4.24693 6.4949L3.45638 6.05879C3.03394 5.82575 2.61108 5.5214 2.20643 5.11835C0.494903 3.41358 0.430845 1.68451 0.528184 0.836945L0.528529 0.833849C0.545572 0.676823 0.675315 0.545809 0.836521 0.528451L0.836522 0.52846L0.839593 0.52811C1.69234 0.430949 3.42935 0.495438 5.13756 2.20017L5.1379 2.20051C5.53694 2.59797 5.84036 3.01082 6.07534 3.41716L6.49881 4.14945L6.93616 3.42537C7.17736 3.02603 7.49242 2.61326 7.9068 2.20051C9.45829 0.655159 11.2141 0.506955 12.1486 0.558784C12.3295 0.569157 12.4712 0.716905 12.4782 0.888728L12.4783 0.890653C12.521 1.83829 12.3597 3.61002 10.8454 5.11835C10.4375 5.52464 10.0298 5.83499 9.63612 6.07155L8.92293 6.50012L9.63612 6.9287C10.0298 7.16526 10.4375 7.47561 10.8454 7.8819Z" fill="white" stroke="#A28E8E"/>
</svg>
