<svg width="20" height="20" viewBox="0 0 20 20" fill="none" xmlns="http://www.w3.org/2000/svg">
<path d="M16.8752 11.9352L17.0684 12.1277C19.3319 14.5119 19.5636 17.1641 19.4884 18.605C19.4642 19.0319 19.121 19.3704 18.6917 19.3874L18.691 19.3874C17.179 19.4495 14.3683 19.1849 11.9798 16.8057L11.9784 16.8043C11.3218 16.1556 10.8241 15.499 10.4415 14.8605L9.99846 14.121L9.57656 14.8727C9.21129 15.5235 8.73181 16.1763 8.09992 16.8057C5.3989 19.4961 2.63114 19.6114 1.26719 19.4555C0.885804 19.4112 0.589076 19.114 0.54506 18.7376C0.388654 17.3802 0.498752 14.6255 3.20361 11.9362C3.8588 11.2888 4.52578 10.8004 5.18889 10.4318L5.97801 9.99307L5.18746 9.55696C4.51687 9.18702 3.84586 8.70395 3.20452 8.06514C0.498475 5.36978 0.388605 2.61971 0.545117 1.25689L0.545463 1.25379C0.585413 0.885722 0.885043 0.585492 1.25813 0.545318L1.25813 0.545327L1.2612 0.544977C2.63125 0.388875 5.39331 0.498996 8.09413 3.19431L8.09447 3.19465C8.72638 3.82407 9.20732 4.47838 9.57974 5.12239L10.0032 5.85468L10.4406 5.1306C10.823 4.4974 11.3213 3.84506 11.9743 3.19465C14.4344 0.744263 17.2229 0.508609 18.7052 0.590863C19.121 0.614557 19.4497 0.952432 19.4663 1.35621L19.4664 1.35813C19.5338 2.85715 19.279 5.67079 16.8752 8.06514C16.2325 8.70528 15.5881 9.19626 14.9635 9.57162L14.2503 10.0002L14.9635 10.4288C15.5881 10.8041 16.2325 11.2951 16.8752 11.9352Z" fill="white" stroke="#A28E8E"/>
</svg>
