<svg width="23" height="24" viewBox="0 0 23 24" fill="none" xmlns="http://www.w3.org/2000/svg">
<path d="M11.1982 18.5276C10.7622 18.0933 10.3226 17.7579 9.89365 17.5001C10.3226 17.2424 10.7622 16.9069 11.1982 16.4726C12.8502 14.8272 13.0239 12.8922 12.9778 11.8682C12.9601 11.4374 12.6127 11.0843 12.1766 11.0596C11.1592 11.0031 9.24137 11.1655 7.55395 12.8463C7.11083 13.2876 6.7705 13.7325 6.50817 14.1669C6.25293 13.7255 5.92325 13.277 5.49076 12.8463C3.64735 11.0066 1.74369 10.9219 0.78299 11.0313C0.389494 11.0737 0.0739887 11.388 0.0314486 11.7799C-0.0784465 12.7368 0.0066336 14.6329 1.85358 16.4726C2.29316 16.9104 2.75401 17.2424 3.21486 17.4966C2.75756 17.7508 2.30025 18.0863 1.85358 18.5276C0.0066336 20.3638 -0.0784465 22.2634 0.0314486 23.2168C0.0775337 23.6123 0.389494 23.923 0.786535 23.9689C1.74369 24.0784 3.6509 23.9901 5.4943 22.154C5.92679 21.7232 6.25648 21.2748 6.50817 20.8263C6.7705 21.2642 7.11083 21.7126 7.5575 22.154C9.19883 23.7888 11.1309 23.9689 12.1625 23.9266C12.6091 23.9089 12.9672 23.5558 12.992 23.1109C13.0452 22.094 12.875 20.1943 11.1982 18.5241V18.5276Z" fill="#A28E8E" fill-opacity="0.2"/>
<path d="M22.0298 4.05335C21.795 3.81949 21.5583 3.63886 21.3274 3.50007C21.5583 3.36127 21.795 3.18065 22.0298 2.94679C22.9193 2.06078 23.0129 1.01886 22.9881 0.467477C22.9785 0.235518 22.7914 0.0453866 22.5567 0.0320775C22.0088 0.00165652 20.9761 0.0891167 20.0675 0.99414C19.8289 1.2318 19.6457 1.47137 19.5044 1.70523C19.367 1.46757 19.1894 1.2261 18.9566 0.99414C17.964 0.00355783 16.9389 -0.0420736 16.4216 0.016867C16.2097 0.0396827 16.0398 0.208899 16.0169 0.419945C15.9578 0.9352 16.0036 1.9562 16.9981 2.94679C17.2348 3.18255 17.4829 3.36127 17.7311 3.49817C17.4848 3.63506 17.2386 3.81568 16.9981 4.05335C16.0036 5.04203 15.9578 6.06493 16.0169 6.57829C16.0417 6.79123 16.2097 6.95855 16.4235 6.98327C16.9389 7.04221 17.9659 6.99467 18.9585 6.00599C19.1914 5.77403 19.3689 5.53257 19.5044 5.2911C19.6457 5.52686 19.8289 5.76833 20.0694 6.00599C20.9532 6.8863 21.9935 6.98327 22.549 6.96045C22.7895 6.95094 22.9823 6.76081 22.9957 6.52125C23.0243 5.97367 22.9327 4.95077 22.0298 4.05145V4.05335Z" fill="#A28E8E" fill-opacity="0.2"/>
</svg>
