<svg width="72" height="66" viewBox="0 0 72 66" fill="none" xmlns="http://www.w3.org/2000/svg">
<g opacity="0.2">
<path d="M44.1551 15.2312C41.2351 14.8112 39.3151 11.9512 40.0351 9.08121C41.1751 4.53121 35.9751 1.06121 32.2151 3.87121C29.8451 5.64121 26.4651 4.97121 24.9551 2.43121C22.5451 -1.59879 16.4151 -0.36879 15.7351 4.28121C15.3151 7.21121 12.4551 9.12121 9.58512 8.40121C5.03512 7.26121 1.56512 12.4612 4.37512 16.2212C6.14512 18.5912 5.47512 21.9712 2.93512 23.4812C-1.09488 25.8912 0.135117 32.0212 4.78512 32.7012C7.71512 33.1212 9.62512 35.9812 8.90512 38.8512C7.76512 43.4012 12.9651 46.8712 16.7251 44.0612C19.0951 42.2912 22.4751 42.9612 23.9851 45.5012C26.3951 49.5312 32.5251 48.3012 33.2051 43.6512C33.6251 40.7212 36.4851 38.8112 39.3551 39.5312C43.9051 40.6712 47.3751 35.4712 44.5651 31.7112C42.7951 29.3412 43.4651 25.9612 46.0051 24.4512C50.0351 22.0412 48.8051 15.9112 44.1551 15.2312Z" fill="white"/>
<path d="M69.106 49.001C67.596 48.781 66.596 47.301 66.976 45.811C67.566 43.451 64.876 41.661 62.926 43.111C61.696 44.031 59.946 43.681 59.166 42.371C57.916 40.281 54.746 40.921 54.396 43.331C54.176 44.851 52.696 45.841 51.206 45.461C48.846 44.871 47.056 47.561 48.506 49.511C49.426 50.741 49.076 52.491 47.766 53.271C45.676 54.521 46.316 57.691 48.726 58.041C50.246 58.261 51.236 59.741 50.856 61.231C50.266 63.591 52.956 65.381 54.906 63.931C56.136 63.011 57.886 63.361 58.666 64.671C59.916 66.761 63.086 66.121 63.436 63.711C63.656 62.201 65.136 61.201 66.626 61.581C68.986 62.171 70.776 59.481 69.326 57.531C68.406 56.301 68.756 54.551 70.066 53.771C72.156 52.521 71.516 49.351 69.106 49.001Z" fill="white"/>
</g>
</svg>
