<svg width="39" height="36" viewBox="0 0 39 36" fill="none" xmlns="http://www.w3.org/2000/svg">
<path d="M37.894 25.1598C37.754 24.8498 33.574 21.1998 32.844 16.4298C32.474 14.0098 33.944 -5.8202 20.984 4.5698C20.824 4.6998 20.604 4.7498 20.394 4.7398L18.514 4.6598C18.054 4.6398 17.674 4.2898 17.604 3.8298C17.284 1.7498 15.844 -0.0801994 12.884 0.689801C9.82397 1.4898 7.55397 4.9798 6.84397 5.9098C3.56397 10.1798 3.12397 16.3898 3.10397 20.3098C2.33397 20.6498 1.09397 21.1998 1.00397 22.6998C0.923971 24.0898 2.06397 25.2298 3.41397 25.3498C3.55397 25.3598 3.65397 25.4698 3.66397 25.6098C3.72397 26.9598 3.83397 28.3398 3.98397 29.7498C3.98397 32.0098 5.90397 33.8498 8.26397 33.8498C9.14397 33.8498 9.95397 33.5998 10.634 33.1598C11.024 32.9098 11.524 32.9498 11.854 33.2798C12.774 34.1898 14.164 34.7698 15.724 34.7698C16.384 34.7698 17.014 34.6698 17.584 34.4798C17.864 34.3898 18.174 34.4298 18.424 34.5898C19.204 35.0898 20.174 35.3898 21.244 35.3898C22.364 35.3898 23.384 35.0598 24.174 34.5098C24.444 34.3198 24.784 34.2898 25.084 34.4098C25.704 34.6698 26.394 34.8098 27.134 34.8098C29.094 34.8098 30.764 33.7898 31.404 32.3598C31.594 31.9498 32.014 31.7198 32.444 31.7798C32.674 31.8098 32.914 31.8298 33.154 31.8298C36.004 31.8298 38.304 29.6898 38.304 27.0598C38.304 26.3898 38.154 25.7498 37.884 25.1698L37.894 25.1598Z" fill="white" stroke="#D68DA5" stroke-miterlimit="10" stroke-linecap="round"/>
<path d="M15.2846 25.4098C13.3346 24.5798 12.2846 22.6498 12.9346 21.1098C13.5846 19.5698 15.7046 18.9998 17.6646 19.8298" fill="white"/>
<path d="M15.2846 25.4098C13.3346 24.5798 12.2846 22.6498 12.9346 21.1098C13.5846 19.5698 15.7046 18.9998 17.6646 19.8298" stroke="#D68DA5" stroke-miterlimit="10"/>
<path d="M12.154 10.0301C12.6069 10.0301 12.974 9.66301 12.974 9.21014C12.974 8.75726 12.6069 8.39014 12.154 8.39014C11.7011 8.39014 11.334 8.75726 11.334 9.21014C11.334 9.66301 11.7011 10.0301 12.154 10.0301Z" fill="#D68DA5"/>
<path d="M17.8845 10.89C18.3373 10.89 18.7045 10.5229 18.7045 10.07C18.7045 9.61713 18.3373 9.25 17.8845 9.25C17.4316 9.25 17.0645 9.61713 17.0645 10.07C17.0645 10.5229 17.4316 10.89 17.8845 10.89Z" fill="#D68DA5"/>
</svg>
