<?xml version="1.0" encoding="UTF-8"?>
<svg id="_レイヤー_2" data-name="レイヤー 2" xmlns="http://www.w3.org/2000/svg" viewBox="0 0 41.12 41.12">
  <defs>
    <style>
      .cls-1 {
        fill: #312239;
        stroke-width: 0px;
      }
    </style>
  </defs>
  <g id="_レイヤー_1-2" data-name="レイヤー 1">
    <path class="cls-1" d="M41.12,20.56C41.12,9.21,31.92,0,20.56,0S0,9.21,0,20.56s9.21,20.56,20.56,20.56c4.16,0,8.02-1.24,11.25-3.36,2.94,2.04,7,1.57,7,1.57l-2.18-5.96c2.81-3.51,4.49-7.96,4.49-12.81ZM20.56,29.58c-.71-.81-10.65-5.72-8.61-11.2,1.83-4.92,7.83-2.93,8.61-.26.57-2.5,6.72-4.75,8.61.26,2.04,5.39-7.9,10.57-8.61,11.21Z"/>
  </g>
</svg>