<?xml version="1.0" encoding="UTF-8"?>
<svg id="_レイヤー_2" data-name="レイヤー 2" xmlns="http://www.w3.org/2000/svg" viewBox="0 0 119.51 89.61">
  <defs>
    <style>
      .cls-1 {
        fill: #de50ba;
        stroke-width: 0px;
      }
    </style>
  </defs>
  <g id="_レイヤー_1-2" data-name="レイヤー 1">
    <path class="cls-1" d="M75.92,30.06c-6.15-.73-12.32.55-18.26,1.15-9.81.94-16.76-2.47-24.51-7.24l9.95-4.98c2.14-1.07,1.95-4.19-.31-4.98L3.63.16C1.35-.64-.76,1.69.27,3.87l17.68,37.64c1.02,2.16,4.13,2.05,4.99-.17l4.65-12.04c3.41,2.71,7.02,5.6,11.36,7.91,7.13,3.89,15.56,5.2,23.59,4.86,8.75-.67,17.78,1.25,24.67,6.5,12.99,9.69,14.91,26.39,10.2,41.05h21.5c4.09-28.54-12.83-56.9-42.98-59.55Z"/>
  </g>
</svg>