<?xml version="1.0" encoding="UTF-8"?>
<svg id="_レイヤー_2" data-name="レイヤー 2" xmlns="http://www.w3.org/2000/svg" viewBox="0 0 37.17 16.18">
  <defs>
    <style>
      .cls-1 {
        fill: #593e51;
      }

      .cls-1, .cls-2 {
        stroke-width: 0px;
      }

      .cls-2 {
        fill: #170e1c;
      }
    </style>
  </defs>
  <g id="_レイヤー_1-2" data-name="レイヤー 1">
    <g>
      <path class="cls-2" d="M12.94,15.14c-1.17-1.88-3.67-2.87-7.32-2.87-1.07,0-2.1.08-2.99.19C9.38,8.15,14.78,1.68,15.73.51c.27,0,.54,0,.8,0,12.06,0,17.58,6.05,19.43,8.72-.93-.31-1.85-.46-2.76-.46-4.15,0-6.73,3.19-7.56,4.4-2.03-1.33-3.99-2.01-5.84-2.01-3.68,0-5.93,2.61-6.86,3.98Z"/>
      <path class="cls-1" d="M16.53,1c10.52,0,15.88,4.54,18.22,7.4-.52-.09-1.04-.14-1.55-.14-3.98,0-6.59,2.76-7.69,4.23-1.97-1.22-3.89-1.84-5.72-1.84-3.44,0-5.69,2.13-6.86,3.63-1.13-1.35-3.28-2.52-7.32-2.52-.37,0-.74,0-1.1.03C10.33,7.7,14.79,2.45,15.98,1c.19,0,.37,0,.56,0M16.53,0c-.34,0-.69,0-1.04.01C15.49.01,8.53,8.91,0,13.42c0,0,2.68-.65,5.62-.65s6.28.68,7.27,3.41c0,0,2.26-4.53,6.91-4.53,1.68,0,3.68.59,5.99,2.21,0,0,2.64-4.6,7.42-4.6,1.19,0,2.52.29,3.96,1,0,0-4.7-10.26-20.64-10.26h0Z"/>
    </g>
  </g>
</svg>