<svg width="38" height="48" viewBox="0 0 38 48" fill="none" xmlns="http://www.w3.org/2000/svg">
<path d="M36.7183 9.41381C35.6583 5.73381 33.2083 2.83381 30.1083 1.09381C29.7683 0.903813 28.9383 0.923813 28.6883 1.91381C28.4383 2.89381 27.6883 5.40381 27.6883 5.40381C27.5983 5.71381 27.3583 5.95381 27.0483 6.04381C26.7383 6.13381 26.4083 6.05381 26.1583 5.84381C26.1583 5.84381 24.1883 4.12381 23.4483 3.42381C22.7083 2.72381 21.9983 3.15381 21.8083 3.49381C20.1083 6.61381 19.5883 10.3738 20.6583 14.0538C22.0883 18.9938 25.9983 22.5338 30.6483 23.7138C31.6483 23.9638 32.7083 23.6638 33.4183 22.9138C36.7183 19.4338 38.1383 14.3438 36.7083 9.40381L36.7183 9.41381Z" fill="#FFEEEF" stroke="#ED9DA7" stroke-miterlimit="10"/>
<path d="M1.54907 34.4137C0.489073 38.0937 1.00907 41.8537 2.71907 44.9737C2.90907 45.3137 3.61907 45.7437 4.35907 45.0437C5.09907 44.3437 7.05907 42.6237 7.05907 42.6237C7.29907 42.4037 7.63907 42.3337 7.94907 42.4237C8.25907 42.5137 8.49907 42.7537 8.58907 43.0637C8.58907 43.0637 9.33907 45.5737 9.58907 46.5537C9.83907 47.5337 10.6791 47.5537 11.0091 47.3637C14.1091 45.6337 16.5491 42.7237 17.6091 39.0437C19.0291 34.1037 17.6091 29.0137 14.2991 25.5437C13.5891 24.7937 12.5191 24.4937 11.5291 24.7437C6.87907 25.9337 2.96907 29.4737 1.54907 34.4237V34.4137Z" fill="#FFEEEF" stroke="#ED9DA7" stroke-miterlimit="10"/>
</svg>
