<svg width="59" height="59" viewBox="0 0 59 59" fill="none" xmlns="http://www.w3.org/2000/svg">
<path d="M29.18 57.36C44.7434 57.36 57.36 44.7434 57.36 29.18C57.36 13.6166 44.7434 1 29.18 1C13.6166 1 1 13.6166 1 29.18C1 44.7434 13.6166 57.36 29.18 57.36Z" fill="#FEB4B8" stroke="#CC9D95" stroke-width="2" stroke-miterlimit="10"/>
<path d="M28.8486 43.0002C33.7032 43.0002 37.6386 39.7945 37.6386 35.8402C37.6386 31.8858 33.7032 28.6802 28.8486 28.6802C23.994 28.6802 20.0586 31.8858 20.0586 35.8402C20.0586 39.7945 23.994 43.0002 28.8486 43.0002Z" fill="white" stroke="#EFB2B9" stroke-miterlimit="10"/>
<path d="M16.7884 31.3098C18.6607 31.3098 20.1784 29.792 20.1784 27.9198C20.1784 26.0475 18.6607 24.5298 16.7884 24.5298C14.9162 24.5298 13.3984 26.0475 13.3984 27.9198C13.3984 29.792 14.9162 31.3098 16.7884 31.3098Z" fill="white" stroke="#EFB2B9" stroke-miterlimit="10"/>
<path d="M23.9486 26.03C25.8208 26.03 27.3386 24.5122 27.3386 22.64C27.3386 20.7678 25.8208 19.25 23.9486 19.25C22.0763 19.25 20.5586 20.7678 20.5586 22.64C20.5586 24.5122 22.0763 26.03 23.9486 26.03Z" fill="white" stroke="#EFB2B9" stroke-miterlimit="10"/>
<path d="M32.9994 26.03C34.8716 26.03 36.3894 24.5122 36.3894 22.64C36.3894 20.7678 34.8716 19.25 32.9994 19.25C31.1271 19.25 29.6094 20.7678 29.6094 22.64C29.6094 24.5122 31.1271 26.03 32.9994 26.03Z" fill="white" stroke="#EFB2B9" stroke-miterlimit="10"/>
<path d="M40.9212 30.5598C42.7935 30.5598 44.3113 29.042 44.3113 27.1698C44.3113 25.2975 42.7935 23.7798 40.9212 23.7798C39.049 23.7798 37.5312 25.2975 37.5312 27.1698C37.5312 29.042 39.049 30.5598 40.9212 30.5598Z" fill="white" stroke="#EFB2B9" stroke-miterlimit="10"/>
</svg>
