<svg width="48" height="48" viewBox="0 0 48 48" fill="none" xmlns="http://www.w3.org/2000/svg">
<circle cx="24" cy="24" r="23.5" fill="#C3D8FD" stroke="#7A89D4"/>
<path d="M35.8755 21.3205L32.1019 17.4521L29.6211 21.3205H35.8755Z" fill="#F5F7FF"/>
<path d="M20.8398 22.8867L23.9934 34.7229L27.1574 22.8867H20.8398Z" fill="#F5F7FF"/>
<path d="M21.3242 21.3203H26.6431L23.9416 17.5991L21.3242 21.3203Z" fill="#F5F7FF"/>
<path d="M28.1468 20.7106L30.533 17H25.4453L28.1468 20.7106Z" fill="#F5F7FF"/>
<path d="M22.4474 17H17.4648L19.8405 20.7001L22.4474 17Z" fill="#F5F7FF"/>
<path d="M15.9026 17.4521L12.1289 21.3205H18.3834L15.9026 17.4521Z" fill="#F5F7FF"/>
<path d="M12 22.8867L22.3225 34.5337L19.211 22.8867H12Z" fill="#F5F7FF"/>
<path d="M28.7872 22.8867L25.6758 34.5337L35.9983 22.8867H28.7872Z" fill="#F5F7FF"/>
</svg>
