<svg width="317" height="57" viewBox="0 0 317 57" fill="none" xmlns="http://www.w3.org/2000/svg">
<circle cx="24" cy="32" r="23.5" fill="#D6C9EC" stroke="#9D7ACF"/>
<path fill-rule="evenodd" clip-rule="evenodd" d="M88.5 1C73.3122 1 61 13.3122 61 28.5C61 34.9471 63.2186 40.8761 66.9339 45.565C64.7142 48.3302 62.1625 50.836 59.5 52.5C59.7368 52.5474 59.9936 52.6007 60.2687 52.6578C63.5747 53.344 69.5321 54.5804 75.4325 52.7029C79.3195 54.806 83.7703 56 88.5 56H288.5C303.688 56 316 43.6878 316 28.5C316 13.3122 303.688 1 288.5 1H88.5Z" fill="#FFF5FD"/>
<path d="M66.9339 45.565L67.3238 45.878L67.5735 45.567L67.3258 45.2545L66.9339 45.565ZM59.5 52.5L59.235 52.076L58.1672 52.7434L59.4019 52.9903L59.5 52.5ZM60.2687 52.6578L60.3703 52.1682H60.3703L60.2687 52.6578ZM75.4325 52.7029L75.6704 52.2632L75.4835 52.162L75.2809 52.2265L75.4325 52.7029ZM61.5 28.5C61.5 13.5883 73.5883 1.5 88.5 1.5V0.5C73.036 0.5 60.5 13.036 60.5 28.5H61.5ZM67.3258 45.2545C63.678 40.6507 61.5 34.8304 61.5 28.5H60.5C60.5 35.0638 62.7592 41.1014 66.542 45.8755L67.3258 45.2545ZM66.544 45.252C64.3451 47.9912 61.8338 50.4518 59.235 52.076L59.765 52.924C62.4911 51.2202 65.0832 48.6692 67.3238 45.878L66.544 45.252ZM59.4019 52.9903C59.6367 53.0373 59.8916 53.0902 60.1671 53.1474L60.3703 52.1682C60.0956 52.1112 59.837 52.0575 59.5981 52.0098L59.4019 52.9903ZM60.1671 53.1474C63.4654 53.8319 69.544 55.1013 75.5841 53.1794L75.2809 52.2265C69.5202 54.0595 63.684 52.856 60.3703 52.1682L60.1671 53.1474ZM88.5 55.5C83.8554 55.5 79.4861 54.3277 75.6704 52.2632L75.1946 53.1427C79.1528 55.2843 83.6852 56.5 88.5 56.5V55.5ZM288.5 55.5H88.5V56.5H288.5V55.5ZM315.5 28.5C315.5 43.4117 303.412 55.5 288.5 55.5V56.5C303.964 56.5 316.5 43.964 316.5 28.5H315.5ZM288.5 1.5C303.412 1.5 315.5 13.5883 315.5 28.5H316.5C316.5 13.036 303.964 0.5 288.5 0.5V1.5ZM88.5 1.5H288.5V0.5H88.5V1.5Z" fill="#9D7ACF"/>
</svg>
