<svg width="16" height="16" viewBox="0 0 16 16" fill="none" xmlns="http://www.w3.org/2000/svg">
<g opacity="0.7" clip-path="url(#clip0_114_517)">
<path d="M8.00139 1.54185C8.42708 1.54185 8.77231 1.19661 8.77231 0.770923C8.77231 0.345239 8.42708 0 8.00139 0C7.57571 0 7.23047 0.345239 7.23047 0.770923C7.23047 1.19661 7.57571 1.54185 8.00139 1.54185Z" fill="#FFEDF6"/>
<path d="M8.00139 14.458C7.57571 14.458 7.23047 14.8032 7.23047 15.2289C7.23047 15.6546 7.57571 15.9999 8.00139 15.9999C8.42708 15.9999 8.77231 15.6546 8.77231 15.2289C8.77231 14.8032 8.42708 14.458 8.00139 14.458Z" fill="#FFEDF6"/>
<path d="M12.8863 7.58843C10.4143 7.58843 8.41158 5.58403 8.41158 3.11373C8.41158 2.8858 8.22723 2.70312 8.00098 2.70312C7.77473 2.70312 7.59038 2.88748 7.59038 3.11373C7.59038 5.58571 5.58598 7.58843 3.11568 7.58843C2.88775 7.58843 2.70508 7.77278 2.70508 7.99903C2.70508 8.22528 2.88943 8.40963 3.11568 8.40963C5.58766 8.40963 7.59038 10.414 7.59038 12.8843C7.59038 13.1123 7.77473 13.2949 8.00098 13.2949C8.22723 13.2949 8.41158 13.1106 8.41158 12.8843C8.41158 10.4124 10.416 8.40963 12.8863 8.40963C13.1142 8.40963 13.2969 8.22528 13.2969 7.99903C13.2969 7.77278 13.1125 7.58843 12.8863 7.58843Z" fill="#FFEDF6"/>
<path d="M15.2299 7.22949C14.8042 7.22949 14.459 7.57473 14.459 8.00042C14.459 8.4261 14.8042 8.77134 15.2299 8.77134C15.6556 8.77134 16.0008 8.4261 16.0008 8.00042C16.0008 7.57473 15.6556 7.22949 15.2299 7.22949Z" fill="#FFEDF6"/>
<path d="M0.770923 7.22949C0.345239 7.22949 0 7.57473 0 8.00042C0 8.4261 0.345239 8.77134 0.770923 8.77134C1.19661 8.77134 1.54185 8.4261 1.54185 8.00042C1.54185 7.57473 1.19661 7.22949 0.770923 7.22949Z" fill="#FFEDF6"/>
</g>
<defs>
<clipPath id="clip0_114_517">
<rect width="16" height="16" fill="white"/>
</clipPath>
</defs>
</svg>
