<svg width="34" height="34" viewBox="0 0 34 34" fill="none" xmlns="http://www.w3.org/2000/svg">
<g opacity="0.7" clip-path="url(#clip0_114_493)">
<path d="M17.0015 3.27642C17.9061 3.27642 18.6397 2.54279 18.6397 1.63821C18.6397 0.733634 17.9061 0 17.0015 0C16.0969 0 15.3633 0.733634 15.3633 1.63821C15.3633 2.54279 16.0969 3.27642 17.0015 3.27642Z" fill="#FFEDF6"/>
<path d="M17.0015 30.7236C16.0969 30.7236 15.3633 31.4573 15.3633 32.3618C15.3633 33.2664 16.0969 34.0001 17.0015 34.0001C17.9061 34.0001 18.6397 33.2664 18.6397 32.3618C18.6397 31.4573 17.9061 30.7236 17.0015 30.7236Z" fill="#FFEDF6"/>
<path d="M27.3831 16.1254C22.1302 16.1254 17.8744 11.8661 17.8744 6.61667C17.8744 6.13233 17.4826 5.74414 17.0018 5.74414C16.5211 5.74414 16.1293 6.13589 16.1293 6.61667C16.1293 11.8696 11.87 16.1254 6.62057 16.1254C6.13623 16.1254 5.74805 16.5172 5.74805 16.9979C5.74805 17.4787 6.13979 17.8705 6.62057 17.8705C11.8735 17.8705 16.1293 22.1298 16.1293 27.3792C16.1293 27.8635 16.5211 28.2517 17.0018 28.2517C17.4826 28.2517 17.8744 27.86 17.8744 27.3792C17.8744 22.1262 22.1337 17.8705 27.3831 17.8705C27.8675 17.8705 28.2556 17.4787 28.2556 16.9979C28.2556 16.5172 27.8639 16.1254 27.3831 16.1254Z" fill="#FFEDF6"/>
<path d="M32.3609 15.3633C31.4563 15.3633 30.7227 16.0969 30.7227 17.0015C30.7227 17.9061 31.4563 18.6397 32.3609 18.6397C33.2654 18.6397 33.9991 17.9061 33.9991 17.0015C33.9991 16.0969 33.2654 15.3633 32.3609 15.3633Z" fill="#FFEDF6"/>
<path d="M1.63821 15.3633C0.733634 15.3633 0 16.0969 0 17.0015C0 17.9061 0.733634 18.6397 1.63821 18.6397C2.54279 18.6397 3.27642 17.9061 3.27642 17.0015C3.27642 16.0969 2.54279 15.3633 1.63821 15.3633Z" fill="#FFEDF6"/>
</g>
<defs>
<clipPath id="clip0_114_493">
<rect width="34" height="34" fill="white"/>
</clipPath>
</defs>
</svg>
