<svg width="47" height="21" viewBox="0 0 47 21" fill="none" xmlns="http://www.w3.org/2000/svg">
<path d="M35.2835 0.346901L33.8984 2.17491L31.6166 2.84548C31.0395 3.015 30.813 3.6683 31.174 4.12376L32.5997 5.92388L32.5746 8.16618C32.5685 8.73362 33.1608 9.13728 33.7342 8.95625L36.0003 8.24098L38.2665 8.95625C38.8399 9.13728 39.4322 8.73362 39.426 8.16618L39.401 5.92388L40.8262 4.12376C41.1868 3.6683 40.9607 3.015 40.3836 2.84548L38.1018 2.17491L36.7162 0.346901C36.3656 -0.115634 35.6337 -0.115634 35.283 0.346901H35.2835Z" fill="#FFEDAF"/>
<circle cx="44.5" cy="11.5" r="2.5" fill="#FFEDAF"/>
<path d="M39.7303 21C40.4241 21 40.9988 20.4399 41 19.7431C41 19.7383 41 19.7347 41 19.7298C41 15.2867 37.4206 11.6855 33.0044 11.6855C31.5003 11.6855 30.0923 12.104 28.8912 12.831C27.4844 11.5911 25.6436 10.8387 23.6261 10.8387C23.5059 10.8387 23.388 10.8423 23.269 10.8484C22.0402 7.99597 19.2171 6 15.9311 6C12.4611 6 9.50815 8.2246 8.40199 11.3335C8.26733 11.3262 8.13147 11.3226 7.9956 11.3226C3.57938 11.3226 0 14.9238 0 19.3669C0 19.5048 0.00360704 19.6415 0.0108211 19.7782C0.0456891 20.4617 0.601173 21 1.2805 21H39.7303Z" fill="#BEDBFD"/>
</svg>
