<svg width="26" height="26" viewBox="0 0 26 26" fill="none" xmlns="http://www.w3.org/2000/svg">
<circle cx="13" cy="13" r="13" fill="#8DAFE8"/>
<path d="M20.0757 11.9726C19.9708 14.9065 17.5591 17.2524 14.5999 17.2524C11.6406 17.2524 9.12019 14.799 9.12019 11.7727C9.11892 9.35223 10.6871 7.29972 12.8622 6.57255C12.8129 6.57255 12.7636 6.57129 12.7143 6.57129C8.45372 6.57129 5 10.025 5 14.2856C5 18.5461 8.45372 21.9999 12.7143 21.9999C16.9748 21.9999 20.4286 18.5461 20.4286 14.2856C20.4286 13.48 20.3046 12.7022 20.0757 11.9726Z" fill="#FFEDAF"/>
<path d="M16.7548 4.22301L15.8644 5.39816L14.3975 5.82924C14.0265 5.93821 13.8809 6.35819 14.113 6.65099L15.0295 7.80821L15.0134 9.24969C15.0094 9.61447 15.3902 9.87397 15.7588 9.75759L17.2156 9.29777L18.6724 9.75759C19.0411 9.87397 19.4218 9.61447 19.4179 9.24969L19.4018 7.80821L20.318 6.65099C20.5498 6.35819 20.4044 5.93821 20.0334 5.82924L18.5666 5.39816L17.6758 4.22301C17.4504 3.92566 16.9799 3.92566 16.7545 4.22301H16.7548Z" fill="#FFEDAF"/>
</svg>
