
<svg width="29" height="25" viewBox="0 0 29 25" fill="none" xmlns="http://www.w3.org/2000/svg">
<path d="M1.03838 8.66011C1.47838 7.75011 2.39838 6.93011 3.75838 9.06011C3.94838 8.44011 4.18838 7.83011 4.49838 7.24011C7.25838 1.98011 13.9284 -1.20989 20.3884 2.82011C24.2284 5.22011 26.0584 8.78011 24.8584 13.7501C24.5784 14.9201 25.3084 16.0901 26.4884 16.3301C26.8684 16.4101 27.1784 16.4801 27.2784 16.5101C28.3884 16.8601 28.5284 18.3601 27.5084 18.9201C26.0684 19.7101 23.9484 21.2301 22.6884 21.7801C19.6484 23.7901 14.1284 24.4501 9.47838 22.0101C5.67838 20.0101 3.43838 16.2501 3.32838 12.3801C2.32838 11.3001 0.698382 9.38011 1.04838 8.67011L1.03838 8.66011Z" fill="white" stroke="#9264CC" stroke-miterlimit="10"/>
<path d="M17.3617 9.51755C17.5322 8.53818 17.0177 7.63055 16.2125 7.4903C15.4072 7.35005 14.6161 8.03028 14.4456 9.00965C14.275 9.98902 14.7895 10.8967 15.5948 11.0369C16.4 11.1772 17.1911 10.4969 17.3617 9.51755Z" fill="#9264CC"/>
<path d="M10.8373 7.42826C11.3032 6.55011 11.0956 5.52765 10.3736 5.14454C9.65156 4.76144 8.68851 5.16275 8.22257 6.04091C7.75663 6.91906 7.96423 7.94152 8.68627 8.32463C9.40831 8.70774 10.3714 8.30642 10.8373 7.42826Z" fill="#9264CC"/>
<path d="M10.599 11.5001C10.449 11.5001 10.299 11.4601 10.159 11.3901C9.95899 11.2801 9.82899 11.1001 9.78899 10.8901L9.66899 10.1801C9.63899 10.0201 9.74899 9.86012 9.91899 9.83012C10.079 9.80012 10.239 9.91012 10.269 10.0801L10.389 10.7901C10.389 10.7901 10.419 10.8401 10.459 10.8601C10.529 10.9001 10.629 10.9101 10.709 10.8801L11.629 10.5101C11.779 10.4501 11.959 10.5201 12.019 10.6801C12.079 10.8301 12.009 11.0101 11.849 11.0701L10.929 11.4401C10.829 11.4801 10.719 11.5001 10.609 11.5001H10.599Z" fill="#9264CC"/>
</svg>
