<svg width="19" height="18" viewBox="0 0 19 18" fill="none" xmlns="http://www.w3.org/2000/svg">
<path d="M17.4231 6.82C16.8231 4.98 14.8531 3.97 13.0131 4.57C12.9231 4.6 12.8231 4.64 12.7331 4.68C12.7331 4.62 12.7331 4.56 12.7331 4.5C12.7331 2.57 11.1631 1 9.23312 1C7.30312 1 5.73312 2.57 5.73312 4.5C5.73312 4.6 5.73312 4.7 5.74312 4.8C5.69312 4.78 5.63312 4.76 5.58312 4.74C3.74312 4.14 1.76312 5.15 1.17312 6.99C0.573124 8.83 1.58312 10.81 3.42312 11.4C3.51312 11.43 3.61312 11.45 3.71312 11.48C3.67312 11.53 3.63312 11.57 3.60312 11.62C2.46312 13.19 2.81312 15.38 4.38312 16.51C5.95312 17.65 8.14312 17.3 9.27312 15.73C9.33313 15.65 9.38312 15.57 9.43312 15.48C9.46312 15.53 9.49312 15.58 9.53312 15.63C10.6731 17.2 12.8631 17.54 14.4231 16.4C15.9931 15.26 16.3331 13.07 15.2031 11.51C15.1431 11.43 15.0831 11.35 15.0131 11.28C15.0731 11.26 15.1231 11.25 15.1831 11.23C17.0231 10.63 18.0331 8.66 17.4331 6.82H17.4231Z" fill="#EDE0FF"/>
<path d="M17.4231 6.82C16.8231 4.98 14.8531 3.97 13.0131 4.57C12.9231 4.6 12.8231 4.64 12.7331 4.68C12.7331 4.62 12.7331 4.56 12.7331 4.5C12.7331 2.57 11.1631 1 9.23312 1C7.30312 1 5.73312 2.57 5.73312 4.5C5.73312 4.6 5.73312 4.7 5.74312 4.8C5.69312 4.78 5.63312 4.76 5.58312 4.74C3.74312 4.14 1.76312 5.15 1.17312 6.99C0.573124 8.83 1.58312 10.81 3.42312 11.4C3.51312 11.43 3.61312 11.45 3.71312 11.48C3.67312 11.53 3.63312 11.57 3.60312 11.62C2.46312 13.19 2.81312 15.38 4.38312 16.51C5.95312 17.65 8.14312 17.3 9.27312 15.73C9.33312 15.65 9.38312 15.57 9.43312 15.48C9.46312 15.53 9.49312 15.58 9.53312 15.63C10.6731 17.2 12.8631 17.54 14.4231 16.4C15.9931 15.26 16.3331 13.07 15.2031 11.51C15.1431 11.43 15.0831 11.35 15.0131 11.28C15.0731 11.26 15.1231 11.25 15.1831 11.23C17.0231 10.63 18.0331 8.66 17.4331 6.82H17.4231Z" stroke="#9264CC" stroke-miterlimit="10"/>
<path d="M9.30203 11.31C10.5281 11.31 11.522 10.3161 11.522 9.09C11.522 7.86392 10.5281 6.87 9.30203 6.87C8.07596 6.87 7.08203 7.86392 7.08203 9.09C7.08203 10.3161 8.07596 11.31 9.30203 11.31Z" fill="#9264CC"/>
</svg>
