<svg width="34" height="14" viewBox="0 0 34 14" fill="none" xmlns="http://www.w3.org/2000/svg">
<path d="M15.5 2V5C15.5 9.69 19.31 13.5 24 13.5C28.69 13.5 32.5 9.69 32.5 5V2C32.5 1.83 32.48 1.67 32.47 1.5H15.53C15.53 1.67 15.5 1.83 15.5 2Z" fill="#7EFFD6"/>
<path d="M15.5 2V5C15.5 9.69 19.31 13.5 24 13.5C28.69 13.5 32.5 9.69 32.5 5V2C32.5 1.83 32.48 1.67 32.47 1.5H15.53C15.53 1.67 15.5 1.83 15.5 2Z" stroke="#9264CC" stroke-linecap="round" stroke-linejoin="round"/>
<path d="M7.49984 6.5C10.4698 6.5 12.9298 4.34 13.4098 1.5H1.58984C2.06984 4.34 4.52984 6.5 7.49984 6.5Z" fill="#7EFFD6"/>
<path d="M7.49984 6.5C10.4698 6.5 12.9298 4.34 13.4098 1.5H1.58984C2.06984 4.34 4.52984 6.5 7.49984 6.5Z" stroke="#9264CC" stroke-linecap="round" stroke-linejoin="round"/>
<path d="M34 0H0V3H34V0Z" fill="#7EFFD6"/>
</svg>
