<svg width="120" height="70" viewBox="0 0 120 70" fill="none" xmlns="http://www.w3.org/2000/svg">
<path d="M113.879 51.5275C113.252 50.0165 113.242 48.1868 112.502 46.7169C111.741 45.1751 110.528 43.8799 109.058 42.9857C106.006 41.1252 102.264 41.4336 99.3962 43.366C98.5636 39.7067 94.0614 39.3469 90.7002 39.8403C91.2039 33.4571 88.3566 27.0842 83.1966 23.1987C77.7796 19.118 70.6357 18.6246 64.5197 21.4616C61.4669 22.8698 58.743 25.0387 56.8208 27.7934C56.4405 28.3382 56.0807 28.9138 55.7621 29.4997C55.4434 30.0856 55.1042 31.463 54.5389 31.833C53.6652 32.3984 52.1747 31.4527 51.2394 31.3602C50.4787 31.278 49.6975 31.4013 48.978 31.6686C47.3025 32.275 44.1983 35.9343 42.4098 34.8653C41.6183 34.3925 41.094 33.231 40.539 32.5114C39.9531 31.7508 39.3055 31.0313 38.5963 30.394C36.2218 28.2251 32.9634 26.7244 29.6947 27.3617C26.1176 28.0607 23.5376 31.0518 22.3556 34.3514C22.3144 34.4747 22.2733 34.5878 22.2322 34.7009C20.8857 38.8124 21.6463 43.2427 22.5509 47.3953C22.4172 47.3953 22.2939 47.4056 22.1705 47.4159C19.6727 47.5495 17.36 48.3718 15.2528 49.8109C14.893 50.0576 14.8828 50.5407 15.1295 50.8285C15.2117 50.9313 15.335 51.0135 15.4995 51.0444C18.2234 51.5789 20.8857 52.247 23.5273 53.0385C24.031 53.2338 24.5552 53.3777 25.0897 53.5216C25.8607 53.758 26.6316 54.015 27.3922 54.272C27.5464 54.3233 27.6903 54.3028 27.8137 54.2514C28.4818 54.4878 29.1191 54.7962 29.6844 55.2485C31.1543 56.4408 31.2468 58.5788 32.8092 59.689C34.0324 60.5627 35.5023 60.4393 36.9002 60.1412C39.2952 59.6273 41.9061 58.2499 43.6741 60.7477C44.8561 62.4129 45.5757 64.0781 47.1586 65.4554C49.9237 67.871 53.6755 69.1456 57.345 69.0119C61.8369 68.8475 64.53 66.1955 68.1996 64.0472C69.577 63.2455 70.9749 62.7521 72.5887 62.8754C73.5858 62.9577 74.552 63.2866 75.549 63.2969C78.0674 63.3277 79.1878 61.4569 81.3875 60.7168C84.1114 59.8123 86.7736 62.1148 89.1583 63.0502C91.1627 63.8416 93.3316 64.0883 95.4593 63.7594C97.2479 63.4819 98.9542 62.8137 100.434 61.7756C101.627 60.943 102.593 59.8843 104.042 59.4834C105.471 59.0825 107.044 59.2675 108.524 59.2984C110.415 59.3292 115.421 60.1618 118.145 58.9078C119.132 58.4555 119.81 57.7257 119.954 56.595C120.283 53.8814 117.096 52.3806 113.879 51.5378V51.5275Z" fill="#C6B0E3"/>
<path d="M22.1723 47.4058C22.2134 47.9403 22.1312 48.4954 22.0592 48.9168C22.0284 49.1121 21.8434 49.3588 21.6378 49.3999C19.4073 49.883 17.2179 50.0578 15.1415 50.8081C14.8845 50.5203 14.9051 50.0372 15.2649 49.7905C17.372 48.3514 19.6848 47.5394 22.1826 47.3955L22.1723 47.4058Z" fill="#F2F0FF"/>
<path d="M119.962 56.5845C119.818 57.7152 119.139 58.445 118.152 58.8973C117.916 58.6917 117.515 58.4964 116.898 58.3217C116.333 58.1572 115.439 58.3936 114.853 58.3628C113.784 58.3114 112.725 58.1264 111.728 57.7666C110.546 57.3349 109.672 56.6565 108.686 55.9164C107.637 55.1249 107.103 54.8268 105.756 54.539C105.273 54.4362 104.923 54.5185 104.461 54.2718C103.556 53.7989 103.351 52.8841 102.878 52.0515C102.097 50.6844 100.904 49.5846 99.4962 48.8753C96.1864 47.2204 92.5168 48.4333 90.091 50.9414C91.2525 51.5992 92.0543 52.586 92.3626 53.9737C92.4654 54.2512 92.5168 54.5493 92.486 54.8577C92.5271 55.865 92.229 57.006 90.9338 56.5948C90.0293 56.2967 89.6284 55.1352 88.95 54.5493C87.8707 53.6139 86.4728 53.2439 85.0749 53.3364C84.9618 53.3878 84.8384 53.4289 84.7151 53.4906C84.0778 53.7578 83.7283 52.9458 84.047 52.4935C84.7357 51.4862 85.6094 50.6844 86.6373 50.3555C84.8796 48.6286 82.6387 47.9091 80.0382 47.6932C78.9281 47.6007 78.0852 47.1793 78.373 45.9355C78.6094 44.8871 79.4831 43.9003 79.8737 42.893C80.6858 40.755 80.0587 38.9356 79.3392 36.8901C78.8458 35.4819 78.3936 34.0325 77.8179 32.6552C77.0778 30.8769 75.6388 30.0854 74.0353 29.1912C71.1983 27.6185 68.2688 26.385 64.9693 26.899C62.1734 27.341 58.9766 28.3175 57.075 30.5274C55.3893 32.5113 55.009 35.1118 53.8783 37.3732C53.7961 37.5377 53.7138 37.7535 53.611 37.9591C55.122 38.103 56.2013 38.8431 57.0853 40.4877C57.1778 40.6625 57.1881 40.8269 57.147 40.9811C57.332 41.1558 57.2806 41.5567 56.962 41.5464C54.2278 41.4025 50.7329 39.8196 48.3996 42.0193C47.9987 42.4099 47.382 42.1118 47.454 41.5464C47.6493 39.8915 48.7902 38.9356 50.1779 38.4216C48.4304 37.8255 46.57 37.9385 44.7609 38.6272C42.7154 39.3981 41.4305 40.8578 39.6831 42.0501C37.4423 43.5611 36.8461 40.7447 36.2602 39.1926C34.8109 35.3585 30.6993 32.6757 26.598 33.0766C25.0253 33.2308 23.5349 33.8064 22.25 34.6904C22.2911 34.567 22.3322 34.454 22.3733 34.3409C23.5657 31.0517 26.1354 28.0502 29.7125 27.3512C32.9915 26.7139 36.2396 28.2147 38.6141 30.3835C39.3233 31.0311 39.9709 31.7403 40.5568 32.501C41.1016 33.2205 41.6361 34.3717 42.4275 34.8549C44.2058 35.9239 47.3203 32.2646 48.9958 31.6581C49.7153 31.4011 50.4965 31.2675 51.2572 31.3497C52.1925 31.4525 53.683 32.3982 54.5567 31.8226C55.1118 31.4628 55.4612 30.0752 55.7799 29.4893C56.0985 28.9034 56.4583 28.338 56.8386 27.7829C58.7608 25.0282 61.4847 22.8696 64.5375 21.4511C70.6535 18.6141 77.8077 19.1178 83.2144 23.1883C88.3847 27.084 91.2217 33.4466 90.718 39.8299C94.0689 39.3365 98.5814 39.6962 99.414 43.3555C102.282 41.4231 106.034 41.1147 109.076 42.9752C110.546 43.8695 111.759 45.1646 112.52 46.7065C113.249 48.1764 113.26 50.006 113.897 51.517C117.104 52.3496 120.301 53.8503 119.972 56.5742L119.962 56.5845Z" fill="#DFD3EF"/>
<path d="M103.009 13.0645C97.9829 15.2231 96.1019 17.5359 94.4881 23.9088C94.2722 24.7722 93.049 24.7722 92.8229 23.9088C91.2091 17.5359 89.3281 15.2231 84.3017 13.0645C83.613 12.7664 83.613 11.7899 84.3017 11.4918C89.3281 9.33327 91.2091 7.02051 92.8229 0.647573C93.0388 -0.215858 94.262 -0.215858 94.4881 0.647573C96.1019 7.02051 97.9829 9.33327 103.009 11.4918C103.698 11.7899 103.698 12.7664 103.009 13.0645Z" fill="#C4C4C4"/>
<path d="M93.6555 0C94.0153 0 94.375 0.215858 94.4881 0.647573C96.1019 7.02051 97.9829 9.33327 103.009 11.4918C103.698 11.7899 103.698 12.7664 103.009 13.0645C97.9829 15.2231 96.1019 17.5359 94.4881 23.9088C94.375 24.3405 94.0153 24.5564 93.6555 24.5564C93.2957 24.5564 92.936 24.3405 92.8229 23.9088C91.2091 17.5359 89.3281 15.2231 84.3017 13.0645C83.613 12.7664 83.613 11.7899 84.3017 11.4918C89.3281 9.33327 91.2091 7.02051 92.8229 0.647573C92.9257 0.215858 93.2855 0 93.6555 0Z" fill="#C4C4C4"/>
<path d="M91.3281 19.4065L100.497 10.2377C99.9007 9.8779 99.3662 9.49758 98.8728 9.08643L90.3516 17.6077C90.7113 18.1422 91.03 18.7486 91.3281 19.4065Z" fill="#F4F4F4"/>
<path d="M85.6552 24.835C83.8255 25.6162 83.1471 26.4591 82.5612 28.7719C82.479 29.0802 82.037 29.0802 81.9548 28.7719C81.3689 26.4591 80.6802 25.6162 78.8608 24.835C78.6141 24.7322 78.6141 24.3725 78.8608 24.2594C80.6905 23.4782 81.3689 22.6353 81.9548 20.3226C82.037 20.0142 82.479 20.0142 82.5612 20.3226C83.1471 22.6353 83.8358 23.4782 85.6552 24.2594C85.9019 24.3622 85.9019 24.722 85.6552 24.835Z" fill="#C4C4C4"/>
<path d="M82.2724 20.0962C82.406 20.0962 82.5396 20.1784 82.5705 20.3326C83.1564 22.6454 83.8451 23.4882 85.6644 24.2694C85.9111 24.3722 85.9111 24.732 85.6644 24.8451C83.8348 25.6263 83.1564 26.4691 82.5705 28.7819C82.5294 28.9361 82.3957 29.0183 82.2724 29.0183C82.149 29.0183 82.0051 28.9361 81.9743 28.7819C81.3884 26.4691 80.6997 25.6263 78.8803 24.8451C78.6336 24.7423 78.6336 24.3825 78.8803 24.2694C80.71 23.4882 81.3884 22.6454 81.9743 20.3326C82.0154 20.1784 82.149 20.0962 82.2724 20.0962Z" fill="#C4C4C4"/>
<path d="M81.4198 27.1371L84.7502 23.8067C84.5343 23.6731 84.339 23.5394 84.1643 23.3853L81.0703 26.4792C81.2039 26.6745 81.317 26.8904 81.4301 27.1371H81.4198Z" fill="#F4F4F4"/>
<path d="M10.7877 47.7133C7.97132 48.9262 6.91258 50.2213 6.00804 53.7881C5.88469 54.2712 5.196 54.2712 5.07266 53.7881C4.16811 50.2213 3.10938 48.9262 0.29295 47.7133C-0.0976499 47.5488 -0.0976499 46.9937 0.29295 46.8293C3.10938 45.6164 4.16811 44.3212 5.07266 40.7544C5.196 40.2713 5.88469 40.2713 6.00804 40.7544C6.91258 44.3212 7.97132 45.6164 10.7877 46.8293C11.1783 46.9937 11.1783 47.5488 10.7877 47.7133Z" fill="#C4C4C4"/>
<path d="M5.55474 40.4067C5.76032 40.4067 5.95562 40.5301 6.01729 40.7665C6.92184 44.3333 7.98057 45.6284 10.797 46.8414C11.1876 47.0058 11.1876 47.5609 10.797 47.7253C7.98057 48.9383 6.92184 50.2334 6.01729 53.8002C5.95562 54.0469 5.75004 54.16 5.55474 54.16C5.35944 54.16 5.15386 54.0366 5.09219 53.8002C4.18764 50.2334 3.12891 48.9383 0.312481 47.7253C-0.0781186 47.5609 -0.0781186 47.0058 0.312481 46.8414C3.12891 45.6284 4.18764 44.3333 5.09219 40.7665C5.15386 40.5198 5.35944 40.4067 5.55474 40.4067Z" fill="#C4C4C4"/>
<path d="M4.24256 51.2704L9.38203 46.131C9.04282 45.9254 8.74474 45.7198 8.46721 45.4834L3.6875 50.2631C3.89308 50.5612 4.06782 50.9004 4.23228 51.2704H4.24256Z" fill="#F4F4F4"/>
<path d="M74.6638 14.4837C75.5891 14.4837 76.3392 13.7336 76.3392 12.8083C76.3392 11.8829 75.5891 11.1328 74.6638 11.1328C73.7384 11.1328 72.9883 11.8829 72.9883 12.8083C72.9883 13.7336 73.7384 14.4837 74.6638 14.4837Z" fill="#F4F4F4"/>
<path d="M13.7442 36.2847C14.414 36.2847 14.9571 35.7417 14.9571 35.0718C14.9571 34.4019 14.414 33.8589 13.7442 33.8589C13.0743 33.8589 12.5312 34.4019 12.5312 35.0718C12.5312 35.7417 13.0743 36.2847 13.7442 36.2847Z" fill="#F4F4F4"/>
</svg>
