<svg width="38" height="44" viewBox="0 0 38 44" fill="none" xmlns="http://www.w3.org/2000/svg">
<g clip-path="url(#clip0_1425_37)">
<path d="M15.0869 0C15.6369 0 16.187 0.327427 16.3598 0.982282C18.8272 10.6492 21.7031 14.1573 29.3879 17.4316C30.4409 17.8838 30.4409 19.365 29.3879 19.8172C21.7031 23.0914 18.8272 26.5996 16.3598 36.2665C16.187 36.9213 15.6369 37.2488 15.0869 37.2488C14.5368 37.2488 13.9868 36.9213 13.8139 36.2665C11.3466 26.5996 8.47066 23.0914 0.785796 19.8172C-0.26714 19.365 -0.26714 17.8838 0.785796 17.4316C8.47066 14.1573 11.3466 10.6492 13.8139 0.982282C13.9711 0.327427 14.5368 0 15.0869 0Z" fill="#C4C4C4"/>
<path d="M11.5203 29.4374L25.5385 15.5295C24.627 14.9838 23.8098 14.4069 23.0555 13.7832L10.0273 26.7088C10.5774 27.5196 11.0646 28.4395 11.5203 29.4374Z" fill="#F4F4F4"/>
<path d="M37.7177 37.6697C34.9203 38.8547 33.8831 40.1332 32.9873 43.6414C32.8616 44.1091 32.1858 44.1091 32.0601 43.6414C31.1643 40.1332 30.1114 38.8547 27.3298 37.6697C26.9526 37.5138 26.9526 36.9681 27.3298 36.7966C30.1271 35.6116 31.1643 34.3331 32.0601 30.8249C32.1858 30.3572 32.8616 30.3572 32.9873 30.8249C33.8831 34.3331 34.936 35.6116 37.7177 36.7966C38.0948 36.9525 38.0948 37.4982 37.7177 37.6697Z" fill="#C4C4C4"/>
<path d="M32.5315 30.4819C32.7358 30.4819 32.9401 30.6067 32.9872 30.8405C33.883 34.3487 34.9359 35.6272 37.7176 36.8122C38.0948 36.9681 38.0948 37.5138 37.7176 37.6853C34.9202 38.8703 33.883 40.1488 32.9872 43.657C32.9244 43.8909 32.7201 44.0156 32.5315 44.0156C32.3429 44.0156 32.1229 43.8909 32.0757 43.657C31.18 40.1488 30.127 38.8703 27.3454 37.6853C26.9682 37.5294 26.9682 36.9837 27.3454 36.8122C30.1427 35.6272 31.18 34.3487 32.0757 30.8405C32.1386 30.6067 32.3429 30.4819 32.5315 30.4819Z" fill="#C4C4C4"/>
<path d="M31.2414 41.1622L36.3332 36.1105C36.0031 35.9078 35.7046 35.7051 35.4374 35.4712L30.707 40.1643C30.9113 40.4606 31.0842 40.788 31.2571 41.1622H31.2414Z" fill="#F4F4F4"/>
</g>
<defs>
<clipPath id="clip0_1425_37">
<rect width="38" height="44" fill="white" transform="matrix(-1 0 0 1 38 0)"/>
</clipPath>
</defs>
</svg>
