<svg width="48" height="35" viewBox="0 0 48 35" fill="none" xmlns="http://www.w3.org/2000/svg">
<path d="M14.8382 18.7385L11.8767 21.7C9.71173 23.865 6.2009 23.865 4.03595 21.7C1.8726 19.5367 1.8726 16.0258 4.03595 13.8625C6.2009 11.6975 9.71012 11.6991 11.8735 13.8625L14.835 16.824C15.3634 17.3524 15.3634 18.2101 14.835 18.7385L14.8382 18.7385Z" fill="#2ACC97"/>
<path d="M18.0564 15.5204L21.018 12.5588C23.183 10.3939 23.1814 6.88466 21.018 4.72131C18.853 2.55636 15.3438 2.55797 13.1805 4.72131C11.0155 6.88627 11.0171 10.3955 13.1805 12.5588L16.142 15.5204C16.6704 16.0488 17.5281 16.0488 18.0564 15.5204Z" fill="#2ACC97"/>
<path d="M15.96 19.8611L12.9985 22.8226C10.8335 24.9876 10.8335 28.4984 12.9985 30.6633C15.1634 32.8283 18.6727 32.8267 20.836 30.6633C23.001 28.4984 22.9994 24.9892 20.836 22.8258L17.8745 19.8643C17.3461 19.3359 16.4884 19.3359 15.96 19.8643L15.96 19.8611Z" fill="#2ACC97"/>
<path d="M19.1799 16.643L22.1414 13.6814C24.3064 11.5164 27.8156 11.518 29.9789 13.6814C32.1439 15.8464 32.1423 19.3556 29.9789 21.5189C27.814 23.6839 24.3048 23.6823 22.1414 21.5189L19.1799 18.5574C18.6515 18.029 18.6515 17.1713 19.1799 16.643Z" fill="#2ACC97"/>
<path d="M39.7063 6.4377H37.2742C35.4963 6.4377 34.0547 4.99611 34.0547 3.21819C34.0547 1.44159 35.4963 0 37.2729 0C39.0508 0 40.4911 1.44159 40.4911 3.21819V5.6503C40.4911 6.08422 40.1389 6.43638 39.705 6.43638L39.7063 6.4377Z" fill="#2ACC97"/>
<path d="M42.3486 6.43772H44.7807C46.5586 6.43772 47.9989 4.99613 47.9989 3.21953C47.9989 1.44161 46.5573 0.00134277 44.7807 0.00134277C43.0028 0.00134277 41.5625 1.44293 41.5625 3.21953V5.65164C41.5625 6.08557 41.9147 6.43772 42.3486 6.43772Z" fill="#2ACC97"/>
<path d="M39.7063 7.35968H37.2742C35.4963 7.35968 34.0547 8.80127 34.0547 10.5792C34.0547 12.3571 35.4963 13.7974 37.2729 13.7974C39.0508 13.7974 40.4911 12.3558 40.4911 10.5792V8.14708C40.4911 7.71315 40.1389 7.361 39.705 7.361L39.7063 7.35968Z" fill="#2ACC97"/>
<path d="M42.3486 7.35968H44.7807C46.5586 7.35968 47.9989 8.80127 47.9989 10.5779C47.9989 12.3558 46.5573 13.7961 44.7807 13.7961C43.0028 13.7961 41.5625 12.3545 41.5625 10.5779V8.14576C41.5625 7.71183 41.9147 7.35968 42.3486 7.35968Z" fill="#2ACC97"/>
</svg>
