<svg width="17" height="17" viewBox="0 0 17 17" fill="none" xmlns="http://www.w3.org/2000/svg">
<path d="M6.80732 7.75415H3.87787C1.73638 7.75415 0 6.01776 0 3.87628C0 1.73638 1.73638 0 3.87628 0C6.01777 0 7.75256 1.73638 7.75256 3.87628V6.80573C7.75256 7.32839 7.32839 7.75256 6.80573 7.75256L6.80732 7.75415Z" fill="#2ACC97"/>
<path d="M9.9898 7.75415H12.9192C15.0607 7.75415 16.7955 6.01776 16.7955 3.87787C16.7955 1.73638 15.0591 0.00158691 12.9192 0.00158691C10.7778 0.00158691 9.04297 1.73797 9.04297 3.87787V6.80732C9.04297 7.32998 9.46714 7.75415 9.9898 7.75415Z" fill="#2ACC97"/>
<path d="M6.80732 8.86462H3.87787C1.73638 8.86462 0 10.601 0 12.7425C0 14.884 1.73638 16.6188 3.87628 16.6188C6.01777 16.6188 7.75256 14.8824 7.75256 12.7425V9.81304C7.75256 9.29038 7.32839 8.86621 6.80573 8.86621L6.80732 8.86462Z" fill="#2ACC97"/>
<path d="M9.9898 8.86462H12.9192C15.0607 8.86462 16.7955 10.601 16.7955 12.7409C16.7955 14.8824 15.0591 16.6172 12.9192 16.6172C10.7778 16.6172 9.04297 14.8808 9.04297 12.7409V9.81145C9.04297 9.28879 9.46714 8.86462 9.9898 8.86462Z" fill="#2ACC97"/>
</svg>
