<svg width="45" height="69" viewBox="0 0 45 69" fill="none" xmlns="http://www.w3.org/2000/svg">
<g clip-path="url(#clip0_2115_3)">
<path d="M42.6265 18.4117C42.6265 30.0176 33.6159 34.2144 22.5008 34.2144C11.3856 34.2144 2.375 29.595 2.375 18.4117C2.375 9.68585 11.3856 2.60913 22.5008 2.60913C33.6159 2.60913 42.6265 9.6838 42.6265 18.4117Z" fill="#C0B39D"/>
<path d="M22.5013 35C29.3667 35 34.9323 30.286 34.9323 24.4711C34.9323 18.6561 29.3667 13.9421 22.5013 13.9421C15.6359 13.9421 10.0703 18.6561 10.0703 24.4711C10.0703 30.286 15.6359 35 22.5013 35Z" fill="#E6DBC6"/>
<path d="M16.232 21.4679C17.831 20.2587 17.5145 17.1292 15.5252 14.478C13.5359 11.8268 10.627 10.6577 9.02799 11.8669C7.42903 13.0761 7.74549 16.2056 9.73483 18.8568C11.7242 21.5081 14.6331 22.6771 16.232 21.4679Z" fill="#E6DBC6"/>
<path d="M35.2674 18.8592C37.2567 16.208 37.5732 13.0785 35.9742 11.8693C34.3753 10.6601 31.4664 11.8292 29.477 14.4804C27.4877 17.1316 27.1712 20.2611 28.7702 21.4703C30.3691 22.6795 33.278 21.5105 35.2674 18.8592Z" fill="#E6DBC6"/>
<path d="M22.502 31.2524C25.34 31.2524 27.6407 29.4506 27.6407 27.2279C27.6407 25.0053 25.34 23.2034 22.502 23.2034C19.664 23.2034 17.3633 25.0053 17.3633 27.2279C17.3633 29.4506 19.664 31.2524 22.502 31.2524Z" fill="#C0B39D"/>
<path d="M22.5006 26.7808C23.0468 26.7808 23.4896 26.4345 23.4896 26.0074C23.4896 25.5804 23.0468 25.2341 22.5006 25.2341C21.9545 25.2341 21.5117 25.5804 21.5117 26.0074C21.5117 26.4345 21.9545 26.7808 22.5006 26.7808Z" fill="#A49A89"/>
<path d="M28.5984 25.4064C29.0238 25.4064 29.3687 24.9619 29.3687 24.4136C29.3687 23.8653 29.0238 23.4208 28.5984 23.4208C28.173 23.4208 27.8281 23.8653 27.8281 24.4136C27.8281 24.9619 28.173 25.4064 28.5984 25.4064Z" fill="#A49A89"/>
<path d="M16.2312 25.4064C16.6567 25.4064 17.0015 24.9619 17.0015 24.4136C17.0015 23.8653 16.6567 23.4208 16.2312 23.4208C15.8058 23.4208 15.4609 23.8653 15.4609 24.4136C15.4609 24.9619 15.8058 25.4064 16.2312 25.4064Z" fill="#A49A89"/>
<path d="M23.0282 7.03159C22.5767 7.03159 22.2109 6.66442 22.2109 6.2111V0.820489C22.2109 0.367169 22.5767 0 23.0282 0C23.4798 0 23.8455 0.367169 23.8455 0.820489V6.2111C23.8455 6.66442 23.4798 7.03159 23.0282 7.03159Z" fill="#A49A89"/>
<path d="M39.1539 15.5667C38.7841 15.5667 38.451 15.3144 38.3591 14.939C38.2528 14.498 38.5225 14.055 38.9618 13.9483L43.9902 12.7319C44.4295 12.6273 44.8708 12.896 44.9771 13.337C45.0833 13.778 44.8136 14.2211 44.3743 14.3278L39.346 15.5441C39.2826 15.5606 39.2172 15.5667 39.1539 15.5667Z" fill="#A49A89"/>
<path d="M5.84633 15.5667C5.78299 15.5667 5.71761 15.5585 5.65427 15.5441L0.62589 14.3278C0.186597 14.2211 -0.0831088 13.778 0.0231389 13.337C0.129387 12.896 0.570723 12.6252 1.01002 12.7319L6.03839 13.9483C6.47769 14.0549 6.74739 14.498 6.64115 14.939C6.55124 15.3144 6.21616 15.5667 5.84633 15.5667Z" fill="#A49A89"/>
<path d="M44.1876 24.7357C44.161 24.7357 44.1324 24.7357 44.1038 24.7316L39.0755 24.2208C38.6259 24.1757 38.299 23.7736 38.344 23.3224C38.3889 22.8711 38.7894 22.5409 39.2389 22.588L44.2673 23.0988C44.7168 23.1439 45.0437 23.546 44.9988 23.9972C44.9559 24.4198 44.6003 24.7357 44.1876 24.7357Z" fill="#A49A89"/>
<path d="M0.819199 24.7357C0.404424 24.7357 0.0489028 24.4198 0.00803825 23.9972C-0.0369127 23.546 0.290003 23.1439 0.739513 23.0988L5.76789 22.588C6.2174 22.5409 6.61787 22.8711 6.66282 23.3224C6.70777 23.7736 6.38086 24.1757 5.93135 24.2208L0.902971 24.7316C0.874366 24.7336 0.847804 24.7357 0.819199 24.7357Z" fill="#A49A89"/>
<path d="M32.3993 9.35768C32.197 9.35768 31.9927 9.28178 31.8354 9.12999C31.5084 8.81615 31.4962 8.29719 31.8088 7.969L35.364 4.23167C35.6766 3.90348 36.1936 3.89117 36.5205 4.20501C36.8474 4.51884 36.8596 5.0378 36.547 5.366L32.9918 9.10332C32.8304 9.27153 32.6159 9.35768 32.4013 9.35768H32.3993Z" fill="#A49A89"/>
<path d="M12.6029 9.35768C12.3884 9.35768 12.1718 9.27358 12.0124 9.10332L8.45723 5.366C8.14462 5.0378 8.15688 4.51884 8.48379 4.20501C8.81071 3.89117 9.32765 3.90348 9.64026 4.23167L13.1955 7.969C13.5081 8.29719 13.4958 8.81615 13.1689 9.12999C13.0116 9.28178 12.8073 9.35768 12.605 9.35768H12.6029Z" fill="#A49A89"/>
</g>
<path d="M22.6138 48.2556H20.6283C19.1769 48.2556 18 47.0787 18 45.6272C18 44.1769 19.1769 43 20.6272 43C22.0787 43 23.2545 44.1769 23.2545 45.6272V47.6128C23.2545 47.967 22.967 48.2545 22.6128 48.2545L22.6138 48.2556Z" fill="#2ACC97"/>
<path d="M23.3878 48.2556H25.3733C26.8248 48.2556 28.0006 47.0787 28.0006 45.6283C28.0006 44.1769 26.8237 43.0011 25.3733 43.0011C23.9219 43.0011 22.7461 44.178 22.7461 45.6283V47.6139C22.7461 47.9681 23.0336 48.2556 23.3878 48.2556Z" fill="#2ACC97"/>
<path d="M22.6138 47.7444H20.6283C19.1769 47.7444 18 48.9213 18 50.3728C18 51.8242 19.1769 53 20.6272 53C22.0787 53 23.2545 51.8231 23.2545 50.3728V48.3873C23.2545 48.033 22.967 47.7455 22.6128 47.7455L22.6138 47.7444Z" fill="#2ACC97"/>
<path d="M23.3878 47.7444H25.3733C26.8248 47.7444 28.0006 48.9213 28.0006 50.3717C28.0006 51.8231 26.8237 52.9989 25.3733 52.9989C23.9219 52.9989 22.7461 51.8221 22.7461 50.3717V48.3862C22.7461 48.0319 23.0336 47.7444 23.3878 47.7444Z" fill="#2ACC97"/>
<path d="M22.7683 59.1533H21.577C20.7061 59.1533 20 58.4472 20 57.5763C20 56.7061 20.7061 56 21.5763 56C22.4472 56 23.1527 56.7061 23.1527 57.5763V58.7677C23.1527 58.9802 22.9802 59.1527 22.7677 59.1527L22.7683 59.1533Z" fill="#2ACC97"/>
<path d="M23.2327 59.1534H24.424C25.2949 59.1534 26.0004 58.4472 26.0004 57.577C26.0004 56.7062 25.2942 56.0007 24.424 56.0007C23.5531 56.0007 22.8477 56.7068 22.8477 57.577V58.7683C22.8477 58.9809 23.0202 59.1534 23.2327 59.1534Z" fill="#2ACC97"/>
<path d="M22.7683 58.8467H21.577C20.7061 58.8467 20 59.5528 20 60.4237C20 61.2945 20.7061 62 21.5763 62C22.4472 62 23.1527 61.2939 23.1527 60.4237V59.2324C23.1527 59.0198 22.9802 58.8473 22.7677 58.8473L22.7683 58.8467Z" fill="#2ACC97"/>
<path d="M23.2327 58.8467H24.424C25.2949 58.8467 26.0004 59.5528 26.0004 60.423C26.0004 61.2939 25.2942 61.9994 24.424 61.9994C23.5531 61.9994 22.8477 61.2932 22.8477 60.423V59.2317C22.8477 59.0192 23.0202 58.8467 23.2327 58.8467Z" fill="#2ACC97"/>
<circle cx="23" cy="67" r="2" fill="#2ACC97"/>
<defs>
<clipPath id="clip0_2115_3">
<rect width="45" height="35" fill="white"/>
</clipPath>
</defs>
</svg>
