<svg width="14" height="14" viewBox="0 0 14 14" fill="none" xmlns="http://www.w3.org/2000/svg">
<path d="M1.00735 1.00632L1.00679 1.00688C0.450756 1.56292 0.450756 2.46443 1.00679 3.02046L10.4517 12.4654C11.0078 13.0214 11.9093 13.0214 12.4653 12.4654L12.4659 12.4648C13.0219 11.9088 13.0219 11.0073 12.4659 10.4513L3.02093 1.00632C2.4649 0.450287 1.56339 0.450287 1.00735 1.00632Z" fill="#9FC4DC"/>
<path d="M12.4683 1.0093L12.4677 1.00875C11.9117 0.452709 11.0102 0.45271 10.4541 1.00875L1.00921 10.4537C0.453169 11.0097 0.453169 11.9112 1.00921 12.4673L1.00976 12.4678C1.5658 13.0239 2.46731 13.0239 3.02335 12.4678L12.4683 3.02289C13.0243 2.46685 13.0243 1.56534 12.4683 1.0093Z" fill="#9FC4DC"/>
</svg>
