<svg width="24" height="22" viewBox="0 0 24 22" fill="none" xmlns="http://www.w3.org/2000/svg">
<mask id="path-1-inside-1_1340_249" fill="white">
<path fill-rule="evenodd" clip-rule="evenodd" d="M0.00685208 1.0329L0.87975 8.28343C0.314982 9.44017 0.00390625 10.7049 0.00390625 12.0299C0.00390625 17.5354 3.18398 22.0003 11.9975 22.0003C20.8111 22.0003 23.9924 17.5366 23.9924 12.0299H23.9937C23.9937 10.7059 23.6832 9.44224 23.1196 8.28638L23.9928 1.0329C24.0784 0.32858 23.3683 -0.203173 22.7169 0.0754858L16.4308 2.76224C15.0597 2.30884 13.5643 2.05957 11.9988 2.05957C10.4339 2.05957 8.93907 2.30872 7.56844 2.76187L1.28399 0.0754858C0.631373 -0.203173 -0.0774391 0.32858 0.00685208 1.0329Z"/>
</mask>
<path fill-rule="evenodd" clip-rule="evenodd" d="M0.00685208 1.0329L0.87975 8.28343C0.314982 9.44017 0.00390625 10.7049 0.00390625 12.0299C0.00390625 17.5354 3.18398 22.0003 11.9975 22.0003C20.8111 22.0003 23.9924 17.5366 23.9924 12.0299H23.9937C23.9937 10.7059 23.6832 9.44224 23.1196 8.28638L23.9928 1.0329C24.0784 0.32858 23.3683 -0.203173 22.7169 0.0754858L16.4308 2.76224C15.0597 2.30884 13.5643 2.05957 11.9988 2.05957C10.4339 2.05957 8.93907 2.30872 7.56844 2.76187L1.28399 0.0754858C0.631373 -0.203173 -0.0774391 0.32858 0.00685208 1.0329Z" fill="#9FC4DC"/>
<path d="M0.87975 8.28343L2.67698 9.16091L2.93597 8.63045L2.86541 8.04437L0.87975 8.28343ZM0.00685208 1.0329L-1.97898 1.27056L-1.97881 1.27195L0.00685208 1.0329ZM23.9924 12.0299V10.0299H21.9924V12.0299H23.9924ZM23.9937 12.0299V14.0299H25.9937V12.0299H23.9937ZM23.1196 8.28638L21.1339 8.04733L21.0634 8.63292L21.3219 9.16305L23.1196 8.28638ZM23.9928 1.0329L22.0074 0.791685L22.0071 0.793841L23.9928 1.0329ZM22.7169 0.0754858L23.503 1.91455L23.5036 1.91427L22.7169 0.0754858ZM16.4308 2.76224L15.8028 4.66111L16.5211 4.89864L17.2168 4.6013L16.4308 2.76224ZM7.56844 2.76187L6.78232 4.6009L7.47796 4.89826L8.19625 4.66078L7.56844 2.76187ZM1.28399 0.0754858L2.07011 -1.76354L2.06937 -1.76386L1.28399 0.0754858ZM2.86541 8.04437L1.99251 0.793841L-1.97881 1.27195L-1.10591 8.52248L2.86541 8.04437ZM2.00391 12.0299C2.00391 11.0238 2.23899 10.058 2.67698 9.16091L-0.917478 7.40595C-1.60903 8.82236 -1.99609 10.386 -1.99609 12.0299H2.00391ZM11.9975 20.0003C7.90849 20.0003 5.4782 18.9663 4.07415 17.6306C2.68214 16.3064 2.00391 14.4041 2.00391 12.0299H-1.99609C-1.99609 15.1612 -1.08429 18.2441 1.31712 20.5287C3.7065 22.8018 7.27301 24.0003 11.9975 24.0003V20.0003ZM21.9924 12.0299C21.9924 14.4047 21.3139 16.3068 19.9217 17.6309C18.5174 18.9666 16.0867 20.0003 11.9975 20.0003V24.0003C16.7219 24.0003 20.2887 22.8022 22.6784 20.5293C25.0802 18.245 25.9924 15.1619 25.9924 12.0299H21.9924ZM23.9937 10.0299H23.9924V14.0299H23.9937V10.0299ZM21.3219 9.16305C21.759 10.0594 21.9937 11.0244 21.9937 12.0299H25.9937C25.9937 10.3874 25.6074 8.82511 24.9172 7.40972L21.3219 9.16305ZM22.0071 0.793841L21.1339 8.04733L25.1052 8.52544L25.9785 1.27195L22.0071 0.793841ZM23.5036 1.91427C22.7397 2.24109 21.9069 1.61877 22.0074 0.791685L25.9782 1.27411C26.2498 -0.961613 23.9968 -2.64743 21.9303 -1.7633L23.5036 1.91427ZM17.2168 4.6013L23.503 1.91455L21.9309 -1.76358L15.6447 0.923174L17.2168 4.6013ZM11.9988 4.05957C13.3521 4.05957 14.6355 4.27507 15.8028 4.66111L17.0587 0.863371C15.4839 0.342606 13.7764 0.0595703 11.9988 0.0595703V4.05957ZM8.19625 4.66078C9.36323 4.27496 10.6461 4.05957 11.9988 4.05957V0.0595703C10.2218 0.0595703 8.51492 0.342476 6.94063 0.862962L8.19625 4.66078ZM0.497871 1.91451L6.78232 4.6009L8.35456 0.922845L2.07011 -1.76354L0.497871 1.91451ZM1.99268 0.795237C2.0911 1.61759 1.26227 2.2409 0.498617 1.91483L2.06937 -1.76386C0.000474814 -2.64725 -2.24598 -0.960428 -1.97898 1.27056L1.99268 0.795237Z" fill="#E8F5FE" mask="url(#path-1-inside-1_1340_249)"/>
</svg>
