<svg width="54" height="40" viewBox="0 0 54 40" fill="none" xmlns="http://www.w3.org/2000/svg">
<path d="M12.9297 38.9C9.22973 38.9 5.81973 36.75 4.24973 33.42C3.62973 32.11 3.32973 30.72 3.32973 29.29C3.32973 29.13 3.26973 28.97 3.15973 28.85C2.16973 27.82 1.42973 26.59 0.979729 25.22C-0.520271 20.68 1.59973 15.69 5.90973 13.62C7.21973 12.99 8.61973 12.67 10.0697 12.67C11.9697 12.67 13.8097 13.23 15.3997 14.29L31.2697 7.97C32.0097 4.67 34.4697 1.98 37.6997 0.95C38.6297 0.65 39.5997 0.5 40.5797 0.5C44.2797 0.5 47.6897 2.65 49.2597 5.98C49.8797 7.29 50.1797 8.68 50.1797 10.11C50.1797 10.27 50.2397 10.43 50.3497 10.55C51.3397 11.58 52.0797 12.81 52.5297 14.18C54.0297 18.72 51.9097 23.71 47.5997 25.78C46.2897 26.41 44.8897 26.73 43.4397 26.73C41.5397 26.73 39.6997 26.17 38.1097 25.11L22.2397 31.43C21.4997 34.73 19.0397 37.42 15.8097 38.45C14.8797 38.75 13.9097 38.9 12.9297 38.9Z" fill="#EDEAE6" stroke="black" stroke-miterlimit="10"/>
<path d="M45.3097 10.08C45.3097 9.40001 45.1697 8.71001 44.8597 8.05001C43.8697 5.95001 41.3997 4.87001 39.1797 5.58001C37.4897 6.12001 36.3497 7.50001 36.0097 9.08001C35.6697 10.66 34.5397 11.9 33.0597 12.49L17.2097 18.81C15.7297 19.4 14.0397 19.26 12.7197 18.36C11.3997 17.46 9.60966 17.24 8.00966 18.01C5.90966 19.02 4.85966 21.5 5.58966 23.71C5.81966 24.41 6.18966 25.01 6.65966 25.5C7.64966 26.53 8.19966 27.9 8.18966 29.33C8.18966 30.01 8.32966 30.7 8.63966 31.36C9.62966 33.46 12.0997 34.54 14.3197 33.83C16.0097 33.29 17.1497 31.91 17.4897 30.33C17.8297 28.75 18.9597 27.51 20.4397 26.92L36.2897 20.6C37.7697 20.01 39.4597 20.15 40.7797 21.05C42.0997 21.95 43.8897 22.17 45.4897 21.4C47.5897 20.39 48.6397 17.91 47.9097 15.7C47.6797 15 47.3097 14.4 46.8397 13.91C45.8497 12.88 45.2997 11.51 45.3097 10.08Z" fill="#726E69" stroke="black" stroke-miterlimit="10"/>
</svg>
