<svg width="29" height="29" viewBox="0 0 29 29" fill="none" xmlns="http://www.w3.org/2000/svg">
<path d="M25.9364 11.3243L25.8743 11.5864L26.0592 11.7825C28.5777 14.4535 29.167 18.5556 27.2375 21.8976C25.3099 25.2363 21.4607 26.7803 17.8884 25.9347L17.6262 25.8727L17.4302 26.0575C14.7593 28.5759 10.6538 29.1634 7.31503 27.2358C3.97629 25.3082 2.43232 21.459 3.27791 17.8867L3.33997 17.6245L3.15514 17.4285C0.636594 14.7575 0.0473115 10.6554 1.97682 7.31334C3.90634 3.97133 7.75353 2.4306 11.326 3.27623L11.5881 3.33828L11.7841 3.15345C14.4551 0.634907 18.5573 0.0456245 21.8993 1.97514C25.2413 3.90465 26.782 7.75184 25.9364 11.3243Z" fill="white" stroke="#7A737B"/>
</svg>
