<svg width="54" height="50" viewBox="0 0 54 50" fill="none" xmlns="http://www.w3.org/2000/svg">
<path d="M31.9364 25.3243L31.8743 25.5864L32.0592 25.7825C34.5777 28.4535 35.167 32.5556 33.2375 35.8976C31.3099 39.2363 27.4607 40.7803 23.8884 39.9347L23.6262 39.8727L23.4302 40.0575C20.7593 42.5759 16.6538 43.1634 13.315 41.2358C9.97629 39.3082 8.43232 35.459 9.27791 31.8867L9.33997 31.6245L9.15514 31.4285C6.63659 28.7575 6.04731 24.6554 7.97682 21.3133C9.90634 17.9713 13.7535 16.4306 17.326 17.2762L17.5881 17.3383L17.7841 17.1535C20.4551 14.6349 24.5573 14.0456 27.8993 15.9751C31.2413 17.9047 32.782 21.7518 31.9364 25.3243Z" fill="white" stroke="#7A737B"/>
<path d="M25.2845 31.3053C23.7927 33.8893 20.4885 34.7746 17.9045 33.2828C15.3205 31.7909 14.4352 28.4868 15.9271 25.9028C17.4189 23.3188 20.7231 22.4334 23.3071 23.9253C25.891 25.4172 26.7764 28.7213 25.2845 31.3053Z" fill="#EDEDCB" stroke="#7A737B"/>
<path d="M47.346 10.5535L47.2839 10.8156L47.4688 11.0117C48.9523 12.585 49.299 15.0013 48.1627 16.9694C47.0276 18.9356 44.7605 19.8454 42.6562 19.3473L42.394 19.2852L42.198 19.47C40.6247 20.9535 38.2064 21.2992 36.2403 20.164C34.2741 19.0288 33.3643 16.7617 33.8624 14.6575L33.9244 14.3953L33.7396 14.1993C32.256 12.6259 31.9094 10.2097 33.0457 8.24155C34.182 6.27342 36.4478 5.36554 38.5522 5.86367L38.8144 5.92573L39.0104 5.7409C40.5838 4.25731 43 3.91063 44.9681 5.04693C46.9362 6.18323 47.8441 8.44908 47.346 10.5535Z" fill="white" stroke="#7A737B"/>
<path d="M43.297 14.1599C42.438 15.6478 40.5354 16.1576 39.0475 15.2986C37.5596 14.4395 37.0498 12.5369 37.9088 11.049C38.7679 9.56108 40.6705 9.05129 42.1584 9.91034C43.6463 10.7694 44.1561 12.672 43.297 14.1599Z" fill="#EDEDCB" stroke="#7A737B"/>
</svg>
