<svg width="26" height="26" viewBox="0 0 26 26" fill="none" xmlns="http://www.w3.org/2000/svg">
<path d="M19.346 10.5535L19.2839 10.8156L19.4688 11.0117C20.9523 12.585 21.299 15.0013 20.1627 16.9694C19.0276 18.9356 16.7605 19.8454 14.6562 19.3473L14.394 19.2852L14.198 19.47C12.6247 20.9535 10.2064 21.2992 8.24027 20.164C6.2741 19.0288 5.36429 16.7617 5.86239 14.6575L5.92444 14.3953L5.73961 14.1993C4.25603 12.6259 3.90935 10.2097 5.04565 8.24155C6.18195 6.27342 8.4478 5.36554 10.5522 5.86367L10.8144 5.92573L11.0104 5.7409C12.5838 4.25731 15 3.91063 16.9681 5.04693C18.9362 6.18323 19.8441 8.44908 19.346 10.5535Z" fill="white" stroke="#7A737B"/>
<path d="M15.297 14.1599C14.438 15.6478 12.5354 16.1576 11.0475 15.2986C9.55956 14.4395 9.04976 12.5369 9.90881 11.049C10.7679 9.56108 12.6705 9.05129 14.1584 9.91034C15.6463 10.7694 16.1561 12.672 15.297 14.1599Z" fill="#EDEDCB" stroke="#7A737B"/>
</svg>
