<svg width="42" height="42" viewBox="0 0 42 42" fill="none" xmlns="http://www.w3.org/2000/svg">
<path d="M31.9364 17.3243L31.8743 17.5864L32.0592 17.7825C34.5777 20.4535 35.167 24.5556 33.2375 27.8976C31.3099 31.2363 27.4607 32.7803 23.8884 31.9347L23.6262 31.8727L23.4302 32.0575C20.7593 34.5759 16.6538 35.1634 13.315 33.2358C9.97629 31.3082 8.43232 27.459 9.27791 23.8867L9.33997 23.6245L9.15514 23.4285C6.63659 20.7575 6.04731 16.6554 7.97682 13.3133C9.90634 9.97133 13.7535 8.4306 17.326 9.27623L17.5881 9.33828L17.7841 9.15345C20.4551 6.63491 24.5573 6.04562 27.8993 7.97514C31.2413 9.90465 32.782 13.7518 31.9364 17.3243Z" fill="white" stroke="#7A737B"/>
<path d="M25.2845 23.3053C23.7927 25.8893 20.4885 26.7746 17.9045 25.2828C15.3205 23.7909 14.4352 20.4868 15.9271 17.9028C17.4189 15.3188 20.7231 14.4334 23.3071 15.9253C25.891 17.4172 26.7764 20.7213 25.2845 23.3053Z" fill="#EDEDCB" stroke="#7A737B"/>
</svg>
