<svg width="36" height="44" viewBox="0 0 36 44" fill="none" xmlns="http://www.w3.org/2000/svg">
<path d="M4.46493 13.6476C6.72102 15.9058 13.4131 21.4059 19.7434 14.7977C18.3469 18.2541 16.6972 21.2788 15.1085 23.776C15.0441 23.6675 14.9645 23.5676 14.8654 23.485C12.6377 21.6314 6.08105 17.2027 0.531981 23.7345C0.153474 24.1826 0.1914 24.8469 0.609036 25.2642C2.40011 27.0594 7.39649 31.1865 12.4512 27.6135C11.3215 29.1071 10.3536 30.2272 9.7143 30.9337C9.58208 30.9914 9.45839 31.0752 9.36267 31.1894C3.75754 37.682 9.58611 42.382 11.8071 43.831C12.247 44.1186 12.8336 44.0306 13.1579 43.6147C17.5151 37.9921 13.4254 33.348 11.2087 31.4405C12.4592 30.0188 14.4632 27.5474 16.5556 24.2047C16.0424 32.0432 23.7119 33.9833 26.6969 34.4366C27.3604 34.5393 27.9983 34.1249 28.155 33.4724C30.3627 24.117 22.1926 21.0238 18.8634 20.1687C20.051 17.8858 21.1815 15.3302 22.127 12.5509C23.1425 19.5856 30.6912 21.4645 33.8123 21.938C34.5818 22.0563 35.3239 21.5753 35.507 20.817C38.1143 9.772 28.2525 6.25109 24.5235 5.32915C24.3464 5.28288 24.169 5.27987 23.998 5.29636C24.7761 0.909113 24.9784 -3.87238 24.2543 -8.95464C24.2208 -9.19922 24.066 -9.3968 23.8632 -9.49943C23.7337 -9.56494 23.5846 -9.59161 23.4331 -9.5707C23.037 -9.51635 22.7627 -9.14562 22.817 -8.74952C23.9096 -1.10664 22.8274 5.84234 20.8698 11.7467C20.8311 11.7054 20.7902 11.6577 20.745 11.6185C18.2005 9.50174 10.7189 4.44779 4.3846 11.8995C3.9517 12.4122 3.99567 13.1717 4.47144 13.6455L4.46493 13.6476Z" fill="#638070"/>
</svg>
