<svg xmlns="http://www.w3.org/2000/svg" width="56" height="56" viewBox="0 0 56 56" fill="none">
  <g clip-path="url(#clip0_343_437)">
    <path d="M27.9956 56C32.502 56 36.1552 52.3468 36.1552 47.8403C36.1552 43.3339 32.502 39.6807 27.9956 39.6807C23.4891 39.6807 19.8359 43.3339 19.8359 47.8403C19.8359 52.3468 23.4891 56 27.9956 56Z" fill="#FFEECD"/>
    <path d="M12.2446 53.5624C16.751 53.5624 20.4042 49.9093 20.4042 45.4028C20.4042 40.8964 16.751 37.2432 12.2446 37.2432C7.73816 37.2432 4.08496 40.8964 4.08496 45.4028C4.08496 49.9093 7.73816 53.5624 12.2446 53.5624Z" fill="#FFEECD"/>
    <path d="M43.7466 53.5624C48.253 53.5624 51.9062 49.9093 51.9062 45.4028C51.9062 40.8964 48.253 37.2432 43.7466 37.2432C39.2401 37.2432 35.5869 40.8964 35.5869 45.4028C35.5869 49.9093 39.2401 53.5624 43.7466 53.5624Z" fill="#FFEECD"/>
    <path d="M49.6901 37.2913C49.536 25.7502 40.1336 16.4346 28.554 16.4346C16.9745 16.4346 7.82258 25.5094 7.43724 36.8481C7.43724 37.089 7.41797 37.3394 7.41797 37.5803C7.41797 37.6959 7.41797 37.8115 7.41797 37.9175C13.3619 40.0657 20.6641 41.3374 28.554 41.3374C36.4439 41.3374 43.7462 40.0657 49.6901 37.9175C49.6901 37.8019 49.6901 37.6862 49.6901 37.5803C49.6901 37.4839 49.6901 37.3876 49.6901 37.2913Z" fill="#ABB1FA"/>
    <path d="M49.69 37.2908C49.69 37.3871 49.69 37.4835 49.69 37.5798C49.69 37.6954 49.69 37.811 49.69 37.917C43.7461 40.0653 36.4438 41.3369 28.5539 41.3369C20.664 41.3369 13.3618 40.0653 7.41786 37.917C7.41786 37.8014 7.41786 37.6858 7.41786 37.5798C7.41786 37.3293 7.42749 37.0885 7.43712 36.8477C2.82264 38.5528 0 40.836 0 43.3407C0 48.6199 12.5333 52.9068 27.9952 52.9068C43.4571 52.9068 55.9904 48.6199 55.9904 43.3407C55.9904 41.0479 53.6301 38.9478 49.69 37.3004V37.2908Z" fill="#A0A7FA"/>
    <path opacity="0.3" d="M24.2619 29.4055C28.6508 28.0032 31.5314 24.7464 30.6958 22.1312C29.8602 19.5161 25.6249 18.533 21.2359 19.9354C16.847 21.3378 13.9664 24.5946 14.802 27.2097C15.6376 29.8248 19.873 30.8079 24.2619 29.4055Z" fill="#E6E8FF"/>
    <path d="M29.4015 17.0709C28.467 17.5718 27.523 17.5718 26.5885 17.0709C26.4344 16.9938 26.3477 16.8204 26.3477 16.6566V8.11163C26.3477 7.93823 26.4344 7.77446 26.5885 7.69739C27.523 7.18681 28.467 7.18681 29.4015 7.69739C29.546 7.77446 29.6423 7.94786 29.6423 8.11163V16.6566C29.6423 16.83 29.5556 16.9938 29.4015 17.0709Z" fill="#ABB1FA"/>
    <path d="M27.9951 8.55462C30.3574 8.55462 32.2724 6.6396 32.2724 4.27731C32.2724 1.91502 30.3574 0 27.9951 0C25.6328 0 23.7178 1.91502 23.7178 4.27731C23.7178 6.6396 25.6328 8.55462 27.9951 8.55462Z" fill="#ABB1FA"/>
    <path d="M32.9275 31.1645C31.9352 28.5441 28.7272 29.7194 28.4286 31.0296C28.024 29.6327 24.8834 28.5923 23.9297 31.1645C22.8604 34.0256 28.0625 36.5978 28.4286 37.0217C28.8043 36.6845 33.9968 33.9775 32.9275 31.1645Z" fill="#CDD2FF"/>
    <path d="M18.5155 30.1533C18.3806 27.716 16.0589 27.6775 15.5002 28.6312C15.6351 27.4174 14.007 25.8182 12.5427 27.3981C10.6449 29.4501 13.2459 33.9875 13.3519 34.6426C13.7854 34.3824 18.6889 33.3035 18.5059 30.1533H18.5155Z" fill="#CDD2FF"/>
    <path d="M38.3223 30.1533C38.4571 27.716 40.7788 27.6775 41.3376 28.6312C41.2027 27.4174 42.8308 25.8182 44.2951 27.3981C46.1929 29.4501 43.5918 33.9875 43.4859 34.6426C43.0524 34.3824 38.1489 33.3035 38.3319 30.1533H38.3223Z" fill="#CDD2FF"/>
  </g>
  <defs>
    <clipPath id="clip0_343_437">
      <rect width="56" height="56" fill="white"/>
    </clipPath>
  </defs>
</svg>
