<svg width="15" height="15" viewBox="0 0 15 15" fill="none" xmlns="http://www.w3.org/2000/svg">
<g clip-path="url(#clip0_1110_70)">
<path d="M14.8413 5.65317C14.2988 3.9533 12.5222 3.01274 10.8513 3.52711C10.8561 3.44383 10.8657 3.36545 10.8657 3.28217C10.8657 1.46963 9.42521 0 7.64864 0C5.87207 0 4.47002 1.43534 4.43641 3.21359C4.36439 3.18419 4.28756 3.1499 4.21074 3.12541C2.5206 2.56695 0.705616 3.50751 0.158241 5.23187C-0.384333 6.93174 0.513554 8.75898 2.16048 9.34193C2.10766 9.40562 2.05965 9.4644 2.01163 9.53298C0.9697 10.9977 1.2866 13.0503 2.72226 14.1182C4.14352 15.1715 6.11695 14.8628 7.17329 13.4471C7.2165 13.5157 7.25491 13.5843 7.30293 13.6528C8.34486 15.1176 10.3567 15.4458 11.7972 14.3779C13.2184 13.3246 13.5401 11.3112 12.5462 9.8514C12.623 9.83181 12.6999 9.81221 12.7767 9.78772C14.4668 9.22926 15.3887 7.37753 14.8413 5.65317ZM7.49979 8.96473C6.71234 8.96473 6.06893 8.31319 6.06893 7.5049C6.06893 6.6966 6.70754 6.04507 7.49979 6.04507C8.29204 6.04507 8.93065 6.6966 8.93065 7.5049C8.93065 8.31319 8.29204 8.96473 7.49979 8.96473Z" fill="white"/>
</g>
<defs>
<clipPath id="clip0_1110_70">
<rect width="15" height="15" fill="white"/>
</clipPath>
</defs>
</svg>
