<svg width="29" height="29" viewBox="0 0 29 29" fill="none" xmlns="http://www.w3.org/2000/svg">
<circle cx="14.5" cy="14.5" r="14" stroke="white" stroke-dasharray="2 2"/>
<path d="M21.8413 12.6483C21.2988 10.9484 19.5222 10.0079 17.8513 10.5222C17.8561 10.4389 17.8657 10.3606 17.8657 10.2773C17.8657 8.46474 16.4252 6.99512 14.6486 6.99512C12.8721 6.99512 11.47 8.43045 11.4364 10.2087C11.3644 10.1793 11.2876 10.145 11.2107 10.1205C9.5206 9.56207 7.70562 10.5026 7.15824 12.227C6.61567 13.9269 7.51355 15.7541 9.16048 16.3371C9.10766 16.4007 9.05965 16.4595 9.01163 16.5281C7.9697 17.9928 8.2866 20.0454 9.72226 21.1133C11.1435 22.1666 13.1169 21.858 14.1733 20.4422C14.2165 20.5108 14.2549 20.5794 14.3029 20.648C15.3449 22.1127 17.3567 22.4409 18.7972 21.373C20.2184 20.3197 20.5401 18.3064 19.5462 16.8465C19.623 16.8269 19.6999 16.8073 19.7767 16.7828C21.4668 16.2244 22.3887 14.3726 21.8413 12.6483ZM14.4998 15.9598C13.7123 15.9598 13.0689 15.3083 13.0689 14.5C13.0689 13.6917 13.7075 13.0402 14.4998 13.0402C15.292 13.0402 15.9306 13.6917 15.9306 14.5C15.9306 15.3083 15.292 15.9598 14.4998 15.9598Z" fill="white"/>
</svg>
