<svg width="442" height="10" viewBox="0 0 442 10" fill="none" xmlns="http://www.w3.org/2000/svg">
<mask id="mask0_1118_4" style="mask-type:alpha" maskUnits="userSpaceOnUse" x="0" y="0" width="442" height="10">
<rect width="442" height="10" fill="#FFE7CF"/>
</mask>
<g mask="url(#mask0_1118_4)">
<path d="M457.365 2C453.35 2 449.719 3.61642 447.08 6.22817C444.449 3.61642 440.81 2 436.796 2C432.781 2 429.15 3.61642 426.511 6.22817C423.88 3.61642 420.241 2 416.226 2C412.212 2 408.581 3.61642 405.942 6.22817C403.311 3.61642 399.672 2 395.657 2C391.643 2 388.012 3.61642 385.373 6.22817C382.742 3.61642 379.103 2 375.088 2C371.073 2 367.443 3.61642 364.803 6.22817C362.172 3.61642 358.533 2 354.519 2C350.504 2 346.873 3.61642 344.234 6.22817C341.603 3.61642 337.964 2 333.95 2C329.935 2 326.304 3.61642 323.665 6.22817C321.034 3.61642 317.395 2 313.38 2C309.366 2 305.735 3.61642 303.096 6.22817C300.465 3.61642 296.826 2 292.811 2C288.797 2 285.166 3.61642 282.527 6.22817C279.896 3.61642 276.257 2 272.242 2C268.227 2 264.597 3.61642 261.957 6.22817C259.326 3.61642 255.688 2 251.673 2C247.658 2 244.027 3.61642 241.388 6.22817C238.757 3.61642 235.118 2 231.104 2C227.089 2 223.458 3.61642 220.819 6.22817C218.188 3.61642 214.549 2 210.534 2C206.52 2 202.889 3.61642 200.258 6.22817C197.627 3.61642 193.996 2 189.981 2C185.967 2 182.336 3.61642 179.705 6.22817C177.073 3.61642 173.443 2 169.428 2C165.413 2 161.783 3.61642 159.151 6.22817C156.52 3.61642 152.889 2 148.875 2C144.86 2 141.229 3.61642 138.598 6.22817C135.967 3.61642 132.336 2 128.322 2C124.307 2 120.676 3.61642 118.037 6.22817C115.406 3.61642 111.767 2 107.752 2C103.738 2 100.107 3.61642 97.4678 6.22817C94.8367 3.61642 91.1979 2 87.1832 2C83.1685 2 79.5377 3.61642 76.8986 6.22817C74.2675 3.61642 70.6287 2 66.614 2C62.5993 2 58.9685 3.61642 56.3294 6.22817C53.6983 3.61642 50.0595 2 46.0448 2C42.0301 2 38.3993 3.61642 35.7602 6.22817C33.1291 3.61642 29.4903 2 25.4756 2C21.4609 2 17.8301 3.61642 15.191 6.22817C12.5599 3.61642 8.92108 2 4.9064 2C0.891724 2 -2.73906 3.61642 -5.37819 6.22817C-8.00932 3.61642 -11.6481 2 -15.6628 2C-19.6775 2 -23.3083 3.61642 -25.9474 6.22817C-28.5785 3.61642 -32.2173 2 -36.232 2C-40.2467 2 -43.8775 3.61642 -46.5166 6.22817C-49.1477 3.61642 -52.7865 2 -56.8012 2C-60.8159 2 -64.4467 3.61642 -67.0858 6.22817C-69.7169 3.61642 -73.3557 2 -77.3704 2C-81.3851 2 -85.0159 3.61642 -87.655 6.22817C-90.2861 3.61642 -93.9249 2 -97.9396 2C-101.954 2 -105.585 3.61642 -108.224 6.22817C-110.855 3.61642 -114.494 2 -118.509 2C-126.482 2 -133 8.48956 -133 16.5C-133 24.5104 -126.482 31 -118.437 31C-114.422 31 -110.791 29.3836 -108.152 26.7718C-105.521 29.3836 -101.882 31 -97.8676 31C-93.8529 31 -90.2221 29.3836 -87.583 26.7718C-84.9519 29.3836 -81.3131 31 -77.2984 31C-73.2837 31 -69.6529 29.3836 -67.0138 26.7718C-64.3827 29.3836 -60.7439 31 -56.7292 31C-52.7145 31 -49.0837 29.3836 -46.4446 26.7718C-43.8135 29.3836 -40.1747 31 -36.16 31C-32.1453 31 -28.5145 29.3836 -25.8754 26.7718C-23.2443 29.3836 -19.6055 31 -15.5908 31C-11.5761 31 -7.94535 29.3836 -5.30622 26.7718C-2.67509 29.3836 0.963699 31 4.97838 31C8.99306 31 12.6239 29.3836 15.263 26.7718C17.8941 29.3836 21.5329 31 25.5476 31C29.5623 31 33.1931 29.3836 35.8322 26.7718C38.4633 29.3836 42.1021 31 46.1168 31C50.1315 31 53.7623 29.3836 56.4014 26.7718C59.0325 29.3836 62.6713 31 66.686 31C70.7007 31 74.3315 29.3836 76.9706 26.7718C79.6017 29.3836 83.2405 31 87.2552 31C91.2699 31 94.9007 29.3836 97.5398 26.7718C100.171 29.3836 103.81 31 107.824 31C111.839 31 115.47 29.3836 118.109 26.7718C120.74 29.3836 124.379 31 128.394 31C132.408 31 136.039 29.3836 138.67 26.7718C141.301 29.3836 144.932 31 148.947 31C152.961 31 156.592 29.3836 159.223 26.7718C161.855 29.3836 165.485 31 169.5 31C173.515 31 177.145 29.3836 179.777 26.7718C182.408 29.3836 186.039 31 190.053 31C194.068 31 197.699 29.3836 200.33 26.7718C202.961 29.3836 206.592 31 210.606 31C214.621 31 218.252 29.3836 220.891 26.7718C223.522 29.3836 227.161 31 231.176 31C235.19 31 238.821 29.3836 241.46 26.7718C244.091 29.3836 247.73 31 251.745 31C255.759 31 259.39 29.3836 262.029 26.7718C264.661 29.3836 268.299 31 272.314 31C276.329 31 279.959 29.3836 282.599 26.7718C285.23 29.3836 288.869 31 292.883 31C296.898 31 300.529 29.3836 303.168 26.7718C305.799 29.3836 309.438 31 313.452 31C317.467 31 321.098 29.3836 323.737 26.7718C326.368 29.3836 330.007 31 334.022 31C338.036 31 341.667 29.3836 344.306 26.7718C346.937 29.3836 350.576 31 354.591 31C358.605 31 362.236 29.3836 364.875 26.7718C367.507 29.3836 371.145 31 375.16 31C379.175 31 382.806 29.3836 385.445 26.7718C388.076 29.3836 391.715 31 395.729 31C399.744 31 403.375 29.3836 406.014 26.7718C408.645 29.3836 412.284 31 416.298 31C420.313 31 423.944 29.3836 426.583 26.7718C429.214 29.3836 432.853 31 436.868 31C440.882 31 444.513 29.3836 447.152 26.7718C449.783 29.3836 453.422 31 457.437 31C465.482 31 472 24.5104 472 16.5C472 8.48956 465.482 2 457.437 2H457.365Z" fill="white"/>
</g>
</svg>
