<svg width="53" height="45" viewBox="0 0 53 45" fill="none" xmlns="http://www.w3.org/2000/svg">
<g clip-path="url(#clip0_231_113)">
<path d="M45.9288 8.42893L13.8098 1.15102C10.3212 0.360538 6.85236 2.52488 6.06189 5.98521L1.42975 26.2626C0.639282 29.7229 2.82652 33.1689 6.31508 33.9593L38.4341 41.2372C41.9226 42.0277 45.3915 39.8634 46.182 36.4031L50.8141 16.1257C51.6046 12.6654 49.4173 9.21941 45.9288 8.42893Z" fill="#FB83AB"/>
<path d="M35.8693 19.5791C35.0484 13.7647 27.8754 14.6694 26.6561 17.1973C26.4582 14.1572 20.488 10.5724 17.3141 15.3758C13.7874 20.7404 23.2885 28.4065 23.8559 29.4501C24.7823 28.9403 36.7463 25.831 35.8693 19.5791Z" fill="white"/>
<path d="M7.89001 31.9654L18.0337 34.269L8.7159 39.3742C7.60736 39.9811 6.28283 38.996 6.56517 37.7736L7.88856 31.9783L7.89001 31.9654Z" fill="#FB83AB"/>
</g>
<defs>
<clipPath id="clip0_231_113">
<rect width="48.0241" height="38.8431" fill="white" transform="translate(4.3418 0.0556641) rotate(6.41728)"/>
</clipPath>
</defs>
</svg>
