<svg xmlns="http://www.w3.org/2000/svg" width="46" height="39" viewBox="0 0 46 39" fill="none">
  <path d="M39.4441 0.00522535L6.51092 0.0294213C2.93391 0.0320493 0.0312416 2.91159 0.0276174 6.46106L0.00637939 27.2608C0.00275514 30.8102 2.89955 33.6855 6.47655 33.6829L39.4098 33.6587C42.9868 33.6561 45.8895 30.7765 45.8931 27.227L45.9143 6.42734C45.9179 2.87788 43.0211 0.00259734 39.4441 0.00522535Z" fill="#57C4E6"/>
  <path d="M32.1078 13.1083C30.0183 7.62053 23.2244 10.0929 22.5959 12.8283C21.7289 9.90777 15.1125 7.73581 13.0825 13.1233C10.833 19.1363 21.7972 24.5051 22.5818 25.397C23.3722 24.6945 34.3491 19.0101 32.1078 13.1083Z" fill="white"/>
  <path d="M7.57071 31.3894L17.9727 31.3868L10.0186 38.4308C9.07223 39.2683 7.56226 38.6014 7.56656 37.3468L7.57215 31.4023L7.57071 31.3894Z" fill="#57C4E6"/>
</svg>