<svg width="47" height="40" viewBox="0 0 47 40" fill="none" xmlns="http://www.w3.org/2000/svg">
<path d="M40.4158 0.301124L7.4826 0.32532C3.90559 0.327948 1.00292 3.20749 0.999297 6.75695L0.978059 27.5567C0.974435 31.1061 3.87123 33.9814 7.44823 33.9788L40.3815 33.9546C43.9585 33.952 46.8611 31.0724 46.8648 27.5229L46.886 6.72324C46.8896 3.17378 43.9928 0.298496 40.4158 0.301124Z" fill="#FB83AB"/>
<path d="M33.0795 13.4042C30.99 7.91643 24.196 10.3888 23.5676 13.1242C22.7005 10.2037 16.0842 8.03171 14.0542 13.4192C11.8047 19.4322 22.7689 24.801 23.5535 25.6929C24.3439 24.9904 35.3208 19.306 33.0795 13.4042Z" fill="white"/>
<path d="M8.54239 31.6853L18.9444 31.6827L10.9903 38.7267C10.0439 39.5642 8.53394 38.8973 8.53824 37.6427L8.54383 31.6982L8.54239 31.6853Z" fill="#FB83AB"/>
</svg>
