<svg xmlns="http://www.w3.org/2000/svg" width="32" height="40" viewBox="0 0 32 40" fill="none">
  <g clip-path="url(#clip0_283_79)">
    <path d="M15.7765 40.0152C23.5334 40.0152 29.8215 34.2112 29.8215 27.0515C29.8215 19.8919 23.5334 14.0879 15.7765 14.0879C8.01963 14.0879 1.73145 19.8919 1.73145 27.0515C1.73145 34.2112 8.01963 40.0152 15.7765 40.0152Z" fill="#57C4E6"/>
    <path d="M8.31105 2.92974C7.54277 0.667731 5.11226 -0.536396 2.88234 0.240247C0.652429 1.01689 -0.53246 3.48021 0.23582 5.74222L5.67986 21.7708C6.44813 24.0328 8.87865 25.237 11.1086 24.4603C13.3385 23.6837 14.5234 21.2204 13.7551 18.9584L8.31105 2.92974Z" fill="#57C4E6"/>
    <path d="M17.7866 18.9707C17.0183 21.2327 18.2032 23.696 20.4331 24.4727C22.663 25.2493 25.0935 24.0452 25.8618 21.7832L31.3058 5.75455C32.0741 3.49254 30.8892 1.02923 28.6593 0.252586C26.4294 -0.524058 23.9989 0.680068 23.2306 2.94208L17.7866 18.9707Z" fill="#57C4E6"/>
  </g>
  <defs>
    <clipPath id="clip0_283_79">
      <rect width="31.5385" height="40" fill="white"/>
    </clipPath>
  </defs>
</svg>