<svg width="74" height="68" viewBox="0 0 74 68" fill="none" xmlns="http://www.w3.org/2000/svg">
<g clip-path="url(#clip0_846_2)">
<g opacity="0.2">
<path d="M25.0919 3.1906L20.4934 8.4645C18.6389 8.70078 16.882 9.32426 15.328 10.2649C13.7868 11.1977 12.4442 12.4406 11.397 13.9207L4.43059 15.4594C3.76392 15.607 3.50709 16.4167 3.9698 16.9156L9.0462 22.4058C9.48984 28.3311 13.9912 33.3887 20.1588 34.3378C23.3549 34.8299 26.4585 34.1351 29.0193 32.5852C32.2143 30.6513 34.563 27.3838 35.1805 23.4253C36.0239 18.0216 33.4029 12.88 28.9574 10.2248L26.6031 3.47886C26.3791 2.83863 25.5406 2.67751 25.0931 3.1899L25.0919 3.1906ZM31.1024 22.7983C30.6936 25.4148 29.1527 27.7072 26.8715 29.0879C25.0555 30.187 22.8973 30.6136 20.7903 30.2892C18.4056 29.9218 16.3065 28.6553 14.882 26.7214C13.4563 24.7882 12.8748 22.4192 13.2448 20.0517C13.6537 17.4352 15.1946 15.1429 17.4757 13.7622C19.2906 12.6637 21.45 12.2365 23.5558 12.5616C28.479 13.3184 31.8636 17.9115 31.1013 22.799L31.1024 22.7983Z" fill="black"/>
<path d="M87.5718 -24.5696L26.8608 12.1766C25.7878 12.826 25.4483 14.2161 26.1025 15.2814L29.8473 21.3792C30.5015 22.4444 31.9017 22.7815 32.9747 22.132L93.6857 -14.6141C94.7587 -15.2636 95.0982 -16.6537 94.444 -17.7189L90.6992 -23.8167C90.045 -24.882 88.6448 -25.2191 87.5718 -24.5696Z" fill="black"/>
<path d="M12.5716 20.8264L-36.1779 50.3327C-37.1432 50.917 -37.4487 52.1675 -36.8601 53.1259L-32.8776 59.6108C-32.289 60.5692 -31.0293 60.8724 -30.064 60.2881L18.6854 30.7818C19.6508 30.1976 19.9562 28.947 19.3677 27.9887L15.3851 21.5037C14.7965 20.5454 13.5369 20.2421 12.5716 20.8264Z" fill="black"/>
</g>
</g>
<defs>
<clipPath id="clip0_846_2">
<rect width="74" height="68" fill="white"/>
</clipPath>
</defs>
</svg>
