<svg width="61" height="45" viewBox="0 0 61 45" fill="none" xmlns="http://www.w3.org/2000/svg">
<mask id="path-1-inside-1_832_23" fill="white">
<path fill-rule="evenodd" clip-rule="evenodd" d="M6.67112 21.8201C7.60708 17.4187 10.586 13.5572 14.7495 10.7817L19.1061 1.4618C19.8319 -0.0910811 21.6133 -0.479741 22.8347 0.649828L28.9327 6.28728C31.8768 6.15772 34.9239 6.46535 37.9513 7.2882C39.5232 7.71542 40.9574 8.22579 42.2638 8.80486L52.8117 7.33489C54.2884 7.12881 55.4911 8.51108 55.088 9.95144L52.6662 18.6178C54.5629 22.7916 54.6026 27.1452 53.7645 30.2464C50.871 40.9571 39.7459 45.4645 27.2391 44.1502C14.7301 42.837 4.02448 34.2672 6.67112 21.8201Z"/>
</mask>
<path fill-rule="evenodd" clip-rule="evenodd" d="M6.67112 21.8201C7.60708 17.4187 10.586 13.5572 14.7495 10.7817L19.1061 1.4618C19.8319 -0.0910811 21.6133 -0.479741 22.8347 0.649828L28.9327 6.28728C31.8768 6.15772 34.9239 6.46535 37.9513 7.2882C39.5232 7.71542 40.9574 8.22579 42.2638 8.80486L52.8117 7.33489C54.2884 7.12881 55.4911 8.51108 55.088 9.95144L52.6662 18.6178C54.5629 22.7916 54.6026 27.1452 53.7645 30.2464C50.871 40.9571 39.7459 45.4645 27.2391 44.1502C14.7301 42.837 4.02448 34.2672 6.67112 21.8201Z" fill="#D4D0E0"/>
<path d="M14.7495 10.7817L16.4135 13.278C16.8703 12.9735 17.2348 12.5495 17.4673 12.0522L14.7495 10.7817ZM6.67112 21.8201L3.73673 21.1961L3.73672 21.1962L6.67112 21.8201ZM19.1061 1.4618L21.8239 2.7322L21.824 2.73201L19.1061 1.4618ZM22.8347 0.649828L20.7979 2.85239L20.7982 2.8527L22.8347 0.649828ZM28.9327 6.28728L26.8962 8.49015C27.4841 9.03362 28.2648 9.31957 29.0646 9.28438L28.9327 6.28728ZM37.9513 7.2882L37.1644 10.1832L37.1645 10.1832L37.9513 7.2882ZM42.2638 8.80486L41.0481 11.5475C41.5594 11.7741 42.124 11.8533 42.6779 11.7761L42.2638 8.80486ZM52.8117 7.33489L53.2257 10.3062L53.2263 10.3061L52.8117 7.33489ZM55.088 9.95144L52.199 9.14301L52.1987 9.14403L55.088 9.95144ZM52.6662 18.6178L49.7769 17.8104C49.5868 18.4906 49.6428 19.216 49.9349 19.859L52.6662 18.6178ZM53.7645 30.2464L50.8684 29.4637L50.8683 29.464L53.7645 30.2464ZM27.2391 44.1502L27.5526 41.1667L27.5523 41.1666L27.2391 44.1502ZM13.0855 8.28553C8.43012 11.3889 4.87155 15.8596 3.73673 21.1961L9.6055 22.4441C10.3426 18.9779 12.742 15.7255 16.4135 13.278L13.0855 8.28553ZM16.3884 0.191393L12.0318 9.51134L17.4673 12.0522L21.8239 2.7322L16.3884 0.191393ZM24.8716 -1.55273C23.5662 -2.75986 21.8244 -3.24708 20.1458 -2.88132C18.4804 -2.51842 17.1194 -1.37266 16.3883 0.19159L21.824 2.73201C21.8249 2.72992 21.802 2.77772 21.7296 2.83729C21.6582 2.89605 21.5546 2.95249 21.4233 2.98111C21.2911 3.00991 21.1536 3.00532 21.0291 2.97044C20.9028 2.93503 20.8268 2.87911 20.7979 2.85239L24.8716 -1.55273ZM30.9692 4.08441L24.8712 -1.55304L20.7982 2.8527L26.8962 8.49015L30.9692 4.08441ZM38.7381 4.39323C35.4012 3.48626 32.0437 3.14747 28.8008 3.29018L29.0646 9.28438C31.7099 9.16796 34.4465 9.44444 37.1644 10.1832L38.7381 4.39323ZM43.4795 6.06222C42.0263 5.41804 40.448 4.85793 38.7381 4.39321L37.1645 10.1832C38.5984 10.5729 39.8886 11.0335 41.0481 11.5475L43.4795 6.06222ZM42.6779 11.7761L53.2257 10.3062L52.3976 4.3636L41.8497 5.83357L42.6779 11.7761ZM53.2263 10.3061C52.5448 10.4012 52.0239 9.76868 52.199 9.14301L57.977 10.7599C58.9582 7.25347 56.032 3.85642 52.397 4.36368L53.2263 10.3061ZM52.1987 9.14403L49.7769 17.8104L55.5555 19.4253L57.9773 10.7589L52.1987 9.14403ZM56.6606 31.0291C57.6692 27.2971 57.6003 22.2243 55.3974 17.3767L49.9349 19.859C51.5254 23.3589 51.536 26.9933 50.8684 29.4637L56.6606 31.0291ZM26.9256 47.1338C40.0701 48.5151 53.2002 43.8379 56.6606 31.0288L50.8683 29.464C48.5417 38.0763 39.4217 42.4139 27.5526 41.1667L26.9256 47.1338ZM3.73672 21.1962C2.18228 28.5066 4.59235 34.7781 9.16321 39.2944C13.6493 43.7268 20.1351 46.4209 26.9259 47.1338L27.5523 41.1666C21.834 40.5663 16.7126 38.3189 13.3803 35.0263C10.1327 31.8176 8.51331 27.5806 9.60551 22.4441L3.73672 21.1962Z" fill="#998DB2" mask="url(#path-1-inside-1_832_23)"/>
<path d="M14.5613 27.8998C16.2197 27.8998 17.5641 26.5507 17.5641 24.8864C17.5641 23.2222 16.2197 21.873 14.5613 21.873C12.903 21.873 11.5586 23.2222 11.5586 24.8864C11.5586 26.5507 12.903 27.8998 14.5613 27.8998Z" fill="#666666"/>
<path d="M38.1707 31.3607C39.8291 31.3607 41.1734 30.0116 41.1734 28.3474C41.1734 26.6831 39.8291 25.334 38.1707 25.334C36.5123 25.334 35.168 26.6831 35.168 28.3474C35.168 30.0116 36.5123 31.3607 38.1707 31.3607Z" fill="#666666"/>
<path d="M59.5 35.873C59.5 36.7992 58.9912 37.7642 57.9163 38.5525C56.8422 39.3402 55.2857 39.873 53.5 39.873C51.7143 39.873 50.1578 39.3402 49.0837 38.5525C48.0088 37.7642 47.5 36.7992 47.5 35.873C47.5 34.9469 48.0088 33.9819 49.0837 33.1936C50.1578 32.4059 51.7143 31.873 53.5 31.873C55.2857 31.873 56.8422 32.4059 57.9163 33.1936C58.9912 33.9819 59.5 34.9469 59.5 35.873Z" fill="#DCD8E6" stroke="#998DB2" stroke-width="3"/>
<path d="M13.5 35.873C13.5 36.7992 12.9912 37.7642 11.9163 38.5525C10.8422 39.3402 9.28566 39.873 7.5 39.873C5.71434 39.873 4.15784 39.3402 3.08374 38.5525C2.00876 37.7642 1.5 36.7992 1.5 35.873C1.5 34.9469 2.00876 33.9819 3.08374 33.1936C4.15784 32.4059 5.71434 31.873 7.5 31.873C9.28566 31.873 10.8422 32.4059 11.9163 33.1936C12.9912 33.9819 13.5 34.9469 13.5 35.873Z" fill="#DCD8E6" stroke="#998DB2" stroke-width="3"/>
</svg>
