<svg width="39" height="50" viewBox="0 0 39 50" fill="none" xmlns="http://www.w3.org/2000/svg">
<g opacity="0.7" clip-path="url(#clip0_847_23)">
<path d="M12.7868 45.3C12.027 47.4453 9.37328 48.4627 6.85913 47.5723C4.34527 46.682 2.92314 44.2211 3.6829 42.0758C4.44266 39.9306 7.09637 38.9131 9.61052 39.8035C12.1247 40.6939 13.5465 43.1548 12.7868 45.3Z" fill="black" fill-opacity="0.3"/>
<path d="M4.2948 38.7102C5.28257 39.06 6.36349 38.5526 6.70909 37.5767C7.05469 36.6009 6.53411 35.5262 5.54633 35.1764C4.55856 34.8266 3.47765 35.334 3.13204 36.3099C2.78644 37.2857 3.30703 38.3604 4.2948 38.7102Z" fill="black" fill-opacity="0.3"/>
<path d="M10.0604 38.5745C11.0482 38.9243 12.1291 38.4168 12.4747 37.441C12.8203 36.4651 12.2997 35.3905 11.312 35.0406C10.3242 34.6908 9.24327 35.1983 8.89767 36.1741C8.55207 37.15 9.07265 38.2246 10.0604 38.5745Z" fill="black" fill-opacity="0.3"/>
<path d="M14.4276 42.2991C15.4154 42.6489 16.4963 42.1414 16.8419 41.1656C17.1875 40.1898 16.6669 39.1151 15.6791 38.7653C14.6914 38.4154 13.6105 38.9229 13.2649 39.8988C12.9193 40.8746 13.4398 41.9493 14.4276 42.2991Z" fill="black" fill-opacity="0.3"/>
</g>
<g opacity="0.7" clip-path="url(#clip1_847_23)">
<path d="M32.8336 12.6926C32.0739 14.8379 29.4202 15.8553 26.906 14.9649C24.3921 14.0746 22.97 11.6137 23.7298 9.46839C24.4895 7.32313 27.1432 6.30568 29.6574 7.19609C32.1716 8.0865 33.5934 10.5473 32.8336 12.6926Z" fill="black" fill-opacity="0.3"/>
<path d="M24.3417 6.1028C25.3294 6.45263 26.4104 5.94514 26.756 4.9693C27.1016 3.99346 26.581 2.91879 25.5932 2.56897C24.6054 2.21914 23.5245 2.72662 23.1789 3.70246C22.8333 4.6783 23.3539 5.75297 24.3417 6.1028Z" fill="black" fill-opacity="0.3"/>
<path d="M30.1073 5.96706C31.0951 6.31688 32.176 5.8094 32.5216 4.83356C32.8672 3.85772 32.3466 2.78305 31.3588 2.43322C30.3711 2.0834 29.2901 2.59088 28.9445 3.56672C28.5989 4.54256 29.1195 5.61723 30.1073 5.96706Z" fill="black" fill-opacity="0.3"/>
<path d="M34.4745 9.69167C35.4623 10.0415 36.5432 9.53401 36.8888 8.55817C37.2344 7.58233 36.7138 6.50766 35.726 6.15783C34.7382 5.80801 33.6573 6.31549 33.3117 7.29133C32.9661 8.26717 33.4867 9.34184 34.4745 9.69167Z" fill="black" fill-opacity="0.3"/>
</g>
<g opacity="0.7" clip-path="url(#clip2_847_23)">
<path d="M30.5652 35.5612C29.3566 37.4896 26.545 37.9048 24.2851 36.4883C22.0254 35.072 21.1732 32.3605 22.3818 30.4321C23.5905 28.5037 26.4021 28.0885 28.662 29.505C30.922 30.9215 31.7739 33.6329 30.5652 35.5612Z" fill="black" fill-opacity="0.3"/>
<path d="M23.7105 27.2799C24.5984 27.8364 25.7639 27.5765 26.3137 26.6993C26.8634 25.8221 26.5893 24.6599 25.7014 24.1034C24.8135 23.5468 23.6481 23.8068 23.0983 24.684C22.5485 25.5611 22.8226 26.7234 23.7105 27.2799Z" fill="black" fill-opacity="0.3"/>
<path d="M29.3667 28.4039C30.2546 28.9604 31.4201 28.7005 31.9699 27.8233C32.5197 26.9461 32.2456 25.7839 31.3577 25.2274C30.4698 24.6709 29.3043 24.9308 28.7545 25.808C28.2047 26.6852 28.4788 27.8474 29.3667 28.4039Z" fill="black" fill-opacity="0.3"/>
<path d="M32.8199 32.9899C33.7078 33.5464 34.8732 33.2864 35.423 32.4092C35.9728 31.5321 35.6987 30.3698 34.8108 29.8133C33.9229 29.2568 32.7574 29.5168 32.2076 30.3939C31.6579 31.2711 31.932 32.4333 32.8199 32.9899Z" fill="black" fill-opacity="0.3"/>
</g>
<defs>
<clipPath id="clip0_847_23">
<rect width="14.5465" height="13.2997" fill="white" transform="translate(4.44141 32.6074) rotate(19.502)"/>
</clipPath>
<clipPath id="clip1_847_23">
<rect width="14.5465" height="13.2997" fill="white" transform="translate(24.4883) rotate(19.502)"/>
</clipPath>
<clipPath id="clip2_847_23">
<rect width="14.5465" height="13.2997" fill="white" transform="translate(25.1836 21.3564) rotate(32.0783)"/>
</clipPath>
</defs>
</svg>
