<svg width="34" height="63" viewBox="0 0 34 63" fill="none" xmlns="http://www.w3.org/2000/svg">
<circle cx="17" cy="17" r="16" stroke="#826C82" stroke-width="2"/>
<circle cx="16.5" cy="43.5" r="1.5" fill="#826C82"/>
<circle cx="16.5" cy="51.5" r="1.5" fill="#826C82"/>
<circle cx="16.5" cy="60.5" r="2.5" fill="#826C82"/>
<g clip-path="url(#clip0_655_3)">
<path d="M27.5076 14.8883C27.1538 14.5135 26.6521 14.2985 26.1294 14.2985H24.6323V13.0699C24.6323 12.4788 24.1413 12.001 23.5366 12.001H9.09571C8.49109 11.9997 8 12.4788 8 13.0686V16.9578C8 19.8464 9.54983 22.3809 11.8799 23.8194H8.3802C8.24686 23.8194 8.18614 24.0886 8.28779 24.2276C9.03894 25.2373 12.5254 25.9997 16.7129 25.9997C20.9003 25.9997 24.3868 25.236 25.138 24.2276C25.2409 24.0898 25.1802 23.8194 25.0455 23.8194H20.7538C21.6858 23.245 22.4911 22.4955 23.1234 21.6172C25.8891 21.1665 27.6924 19.7911 27.9934 16.2663C28.0356 15.7627 27.8587 15.2605 27.5076 14.8883ZM24.1531 19.6777C24.4634 18.8278 24.6337 17.9121 24.6337 16.9578V15.9301H26.1307C26.2059 15.9301 26.2548 15.9701 26.2772 15.9933C26.3023 16.0203 26.3327 16.0667 26.3261 16.1311C26.1637 18.0293 25.5762 19.1175 24.1531 19.6777Z" fill="#826C82"/>
</g>
<defs>
<clipPath id="clip0_655_3">
<rect width="20" height="14" fill="white" transform="translate(8 12)"/>
</clipPath>
</defs>
</svg>
