<svg width="34" height="63" viewBox="0 0 34 63" fill="none" xmlns="http://www.w3.org/2000/svg">
<path d="M23.1803 12.9961L14.8139 10.3596C14.586 10.2878 14.5197 10.0038 14.6838 9.81514C15.9517 8.36817 17.6468 7.91543 19.2643 8.18724C19.2474 8.06293 19.2558 7.93239 19.2962 7.80435C19.4422 7.34099 19.9353 7.08419 20.3987 7.23021C20.862 7.37623 21.1188 7.86935 20.9728 8.33271C20.9325 8.46075 20.8646 8.57256 20.7792 8.66545C22.2593 9.37066 23.3878 10.7132 23.5988 12.6253C23.6261 12.8736 23.4087 13.0689 23.1808 12.9971L23.1803 12.9961Z" fill="#95816A"/>
<path d="M7.37026 15.5209C8.00694 13.5006 10.1608 12.3789 12.1812 13.0156C12.4982 13.1155 12.7934 13.2529 13.0628 13.4216L13.6543 11.9299C13.8068 11.446 14.323 11.1772 14.8069 11.3297L22.8091 13.8514C23.293 14.0039 23.5618 14.52 23.4093 15.004L22.9528 16.5298C22.787 17.085 22.6776 17.6554 22.6267 18.2317C23.9145 18.6383 24.3949 18.3315 25.0739 17.6071C25.7526 16.8835 27.0821 16.4798 27.4136 16.3874C27.4624 16.3734 27.5143 16.3763 27.5614 16.3945L28.1684 16.6269C28.3388 16.6923 28.3734 16.9177 28.2309 17.032C27.1447 17.9053 26.4025 19.2079 26.4025 19.2079C25.1998 21.5861 23.6424 22.5564 22.5119 22.9508L22.5053 23.288C22.3532 24.9911 21.3699 26.5294 19.8527 27.3189C19.7435 27.3758 19.6322 27.4286 19.5195 27.4777C19.0821 27.6667 18.5896 27.6849 18.1354 27.5417L10.8657 25.2508C10.3794 25.0976 9.96961 24.7657 9.71918 24.3215C9.01321 23.0711 8.84534 21.5328 9.33856 20.1165C7.66243 19.2968 6.79191 17.3535 7.36974 15.5199L7.37026 15.5209ZM10.0165 18.8079C10.821 17.5978 11.9731 15.8186 12.485 14.8137C12.2679 14.6439 12.0172 14.5088 11.7383 14.4209C10.4938 14.0287 9.16677 14.7198 8.77459 15.9643C8.41554 17.1036 8.96464 18.3122 10.0155 18.8084L10.0165 18.8079Z" fill="#95816A"/>
<circle cx="17" cy="17" r="16" stroke="#95816A" stroke-width="2"/>
<circle cx="16.5" cy="43.5" r="1.5" fill="#95816A"/>
<circle cx="16.5" cy="51.5" r="1.5" fill="#95816A"/>
<circle cx="16.5" cy="60.5" r="2.5" fill="#95816A"/>
</svg>
