<svg width="56" height="20" viewBox="0 0 56 20" fill="none" xmlns="http://www.w3.org/2000/svg">
<path d="M45.5075 7.09813C44.7076 5.04517 42.7761 3.59657 40.5171 3.59657C40.0297 3.59657 39.5588 3.66511 39.1103 3.79128C37.8949 2.09657 35.9543 1 33.7686 1C30.0864 1 27.1008 4.10903 27.0978 7.94393C24.7462 8.54517 23 10.7555 23 13.391C23 16.4891 25.41 19 28.3836 19H43.9736V18.9938C44.0543 18.9969 44.1336 19 44.2143 19C47.4091 19 50 16.3006 50 12.972C50 10.1059 48.0804 7.70872 45.5075 7.09657V7.09813Z" fill="white" stroke="#917567" stroke-miterlimit="10" stroke-linejoin="round"/>
<circle cx="17.5" cy="6.5" r="1.5" fill="#917567"/>
<circle cx="9.5" cy="6.5" r="1.5" fill="#917567"/>
<circle cx="1.5" cy="6.5" r="1.5" fill="#917567"/>
<path d="M55.1192 3.61655C54.1573 3.61655 53.3783 2.83722 53.3783 1.87488C53.3783 1.41738 53.0251 1.02298 52.5678 1.0009C52.079 0.978812 51.6753 1.3669 51.6753 1.8528V1.87804C51.6753 2.84037 50.8963 3.6197 49.9344 3.6197H49.8745C49.4172 3.6197 49.023 3.97308 49.0009 4.43059C48.9788 4.91964 49.3667 5.3235 49.8524 5.3235H49.9376C50.8995 5.3235 51.6784 6.10283 51.6784 7.06517V7.12511C51.6784 7.58262 52.0317 7.97702 52.489 7.9991C52.9778 8.02119 53.3815 7.6331 53.3815 7.1472V7.06201C53.3815 6.09968 54.1605 5.32035 55.1224 5.32035H55.1476C55.6301 5.32035 56.0212 4.91648 55.9991 4.42743C55.977 3.96993 55.5828 3.61655 55.1255 3.61655H55.1192Z" fill="#FFBF8E"/>
</svg>
