<svg width="26" height="26" viewBox="0 0 26 26" fill="none" xmlns="http://www.w3.org/2000/svg">
<circle cx="13" cy="13" r="12.5" stroke="#917567"/>
<path d="M7.58228 19.2072L6.18227 12.7486C6.09876 12.3631 6.53637 12.0785 6.8562 12.3102L10.0856 14.6502C10.2951 14.8019 10.5904 14.7364 10.7156 14.5103L12.6207 11.0704C12.7845 10.7747 13.2108 10.7747 13.3745 11.0704L15.2796 14.5103C15.4047 14.7364 15.7001 14.8019 15.9096 14.6502L19.139 12.3102C19.4589 12.0785 19.8965 12.3631 19.813 12.7486L18.413 19.2072C18.3701 19.405 18.1949 19.5459 17.9921 19.5459H8.00331C7.80054 19.5459 7.62531 19.4048 7.58246 19.2072H7.58228Z" fill="#917567"/>
<path d="M13.0014 9.88873C13.5243 9.88873 13.9481 9.46593 13.9481 8.94437C13.9481 8.42281 13.5243 8 13.0014 8C12.4785 8 12.0547 8.42281 12.0547 8.94437C12.0547 9.46593 12.4785 9.88873 13.0014 9.88873Z" fill="#917567"/>
<path d="M5.94671 11.2335C6.46957 11.2335 6.89343 10.8107 6.89343 10.2891C6.89343 9.76753 6.46957 9.34473 5.94671 9.34473C5.42386 9.34473 5 9.76753 5 10.2891C5 10.8107 5.42386 11.2335 5.94671 11.2335Z" fill="#917567"/>
<path d="M20.0522 11.2335C20.575 11.2335 20.9989 10.8107 20.9989 10.2891C20.9989 9.76753 20.575 9.34473 20.0522 9.34473C19.5293 9.34473 19.1055 9.76753 19.1055 10.2891C19.1055 10.8107 19.5293 11.2335 20.0522 11.2335Z" fill="#917567"/>
</svg>
