<svg width="43" height="42" viewBox="0 0 43 42" fill="none" xmlns="http://www.w3.org/2000/svg">
<circle cx="21.5703" cy="21" r="20.5" stroke="#886442"/>
<g clip-path="url(#clip0_469_3)">
<path d="M32.6499 16.4009C32.3668 16.5554 32.2546 16.9083 32.4028 17.1958C32.9852 18.3186 33.3006 19.5185 33.3707 20.8006C33.4742 22.7041 32.9977 24.4599 31.9588 26.0328C30.5078 28.2316 28.4506 29.5178 25.828 29.8826C24.3274 30.0911 22.886 29.8625 21.4616 29.3684C20.8558 29.1585 20.6382 28.7985 20.7719 28.1156C21.1726 28.3156 21.5486 28.5085 21.9298 28.6934C22.8692 29.1508 23.2725 28.9395 23.4169 27.9021C23.5242 27.1294 23.6264 26.3688 24.4973 26.0362C24.5848 26.0032 24.6246 25.8456 24.7252 25.6815C24.4199 25.6622 24.1977 25.6479 23.883 25.6271C24.051 25.3356 24.2018 25.1237 24.2949 24.8882C24.3413 24.772 24.2803 24.6137 24.2681 24.4745C24.1393 24.5138 23.993 24.5253 23.8866 24.5973C23.744 24.6942 23.6328 24.838 23.4584 25.0098C23.3275 24.5336 23.2215 24.151 23.1163 23.7693L22.9055 23.765C22.8072 24.0853 22.7083 24.4047 22.5927 24.7796C22.3831 24.446 22.2111 24.1716 22.0384 23.8963L21.8221 23.9742C21.8726 24.3553 21.9237 24.7373 21.9813 25.1663C21.7139 25.09 21.5045 25.0301 21.2115 24.9473C21.3477 25.8305 22.5253 26.0431 22.2852 27.0831C21.5842 26.5931 20.9609 26.1067 20.286 25.7081C20.0176 25.5501 19.5763 25.4607 19.3187 25.5757C19.0897 25.6782 18.9438 26.0919 18.8789 26.3949C18.7959 26.7782 18.8316 27.1868 18.8141 27.6314C16.1319 25.5829 15.1572 20.9111 16.5451 18.1476C16.7788 18.3365 16.9994 18.5322 17.2365 18.7046C18.0316 19.2854 18.8972 19.0698 19.7281 18.8601C20.402 18.6892 20.9384 18.8211 21.4353 19.2795C21.5884 19.4209 21.7786 19.5213 21.9524 19.6393L22.0782 19.5518C22.0215 19.3248 21.9654 19.0987 21.898 18.8264C22.3358 18.8765 22.7217 18.9223 23.1079 18.9666L23.1836 18.7857C22.9334 18.5837 22.6824 18.3807 22.3534 18.1145C22.6817 17.9858 22.9264 17.9123 23.1466 17.7938C23.2585 17.7333 23.3257 17.5921 23.4138 17.4874C23.2763 17.4268 23.1419 17.3264 23.0013 17.317C22.8089 17.3034 22.612 17.3602 22.2499 17.4101C22.5864 17.021 22.8205 16.7513 23.0539 16.4807L22.9568 16.3474C22.5759 16.5131 22.1959 16.6781 21.6807 16.9024C21.8028 16.5172 21.8603 16.3341 21.919 16.1488L21.7652 16.0429C21.5825 16.1899 21.3784 16.3191 21.2276 16.4946C20.9249 16.8479 20.7257 17.3396 20.3568 17.579C19.5704 18.0889 17.9988 17.322 17.7985 16.4044C17.5703 15.3548 18.0479 14.6869 19.0104 14.8662C19.6551 14.9863 20.094 14.7644 20.5558 14.421C22.0073 13.3398 22.8858 11.8432 23.4942 10.1939C23.9673 8.91159 23.0338 7.67985 21.6665 7.727C19.7774 7.7923 18.0868 8.45921 16.558 9.56035C15.9516 9.9979 15.6809 10.5291 15.8201 11.2997C15.951 12.0303 15.445 12.684 14.7009 12.8753C14.1931 13.0063 13.56 12.6192 13.3278 11.9638C13.2202 11.6592 13.2516 11.3065 13.2025 10.979C13.0325 9.85622 13.5234 9.18555 14.5764 8.83498C14.7722 8.76915 14.905 8.51729 15.0625 8.33554L14.9879 8.1816C14.779 8.19125 14.5701 8.20091 14.1888 8.21875C14.467 7.7687 14.675 7.43267 14.8824 7.09574L14.7576 6.97985L13.9083 7.59851C13.841 7.55392 13.8388 7.55276 13.7705 7.50883C13.8123 7.30228 13.8742 7.0965 13.8881 6.88794C13.8974 6.74003 13.8398 6.58635 13.8114 6.4365C13.6667 6.52659 13.4758 6.58595 13.3872 6.71481C13.2367 6.93481 13.1505 7.1989 12.9979 7.53081L12.3355 6.62146C12.259 6.64646 12.2624 6.64539 12.1874 6.67064C12.1922 7.0808 12.1973 7.48939 12.2023 7.9553C12.0452 7.85448 11.9598 7.76583 11.859 7.74419C11.7292 7.71714 11.5886 7.7441 11.4533 7.74766C11.4732 7.86871 11.4486 8.03196 11.5183 8.10277C12.2544 8.85504 12.1397 9.71701 11.9285 10.6283C11.6251 11.9408 11.4883 13.2353 12.9786 14.0838C11.0831 17.0284 10.3888 20.1434 11.1898 23.5344C11.99 26.9203 13.9815 29.4189 17.014 31.2081C16.557 31.541 16.1542 31.8372 15.7487 32.1298C15.4215 32.3654 15.102 32.6038 15.2017 33.0831C15.3031 33.5627 15.6643 33.7314 16.0883 33.8334C16.7767 33.9999 17.4623 34.1741 18.1499 34.3453L18.1516 34.516C17.8783 34.5921 17.6061 34.7177 17.3321 34.7203C17.0006 34.7242 16.6703 34.5903 16.3349 34.5621C16.1342 34.5448 15.9263 34.6152 15.6089 34.6633C15.9076 34.9376 16.0679 35.085 16.2585 35.2606C15.7982 35.4492 15.4265 35.6026 15.0557 35.7553L15.098 35.976C15.4537 35.9824 15.8064 35.9883 16.3208 35.9964C16.0696 36.2004 15.922 36.2828 15.8268 36.4066C15.7127 36.554 15.6448 36.7362 15.5559 36.903C15.7397 36.8991 15.9342 36.9307 16.1055 36.8828C16.3553 36.8126 16.5892 36.6842 16.9465 36.5301C16.8883 36.8156 16.8438 36.9361 16.8443 37.0573C16.8438 37.2575 16.8731 37.4584 16.8895 37.6588C17.0484 37.5249 17.2277 37.4096 17.3602 37.253C17.4985 37.0908 17.5925 36.891 17.7868 36.5762C17.8701 36.8704 17.8834 36.9823 17.9334 37.0759C17.9894 37.1776 18.0781 37.2611 18.1534 37.353C18.2254 37.2433 18.3148 37.1404 18.3641 37.0206C18.3969 36.9394 18.3834 36.8347 18.3753 36.7414C18.3194 36.089 18.6011 35.6322 19.1485 35.2935C19.4817 35.0871 19.7924 34.8385 20.0941 34.5851C20.6519 34.1172 20.5134 33.4565 19.8233 33.192C19.3922 33.0267 18.9699 32.8354 18.5276 32.649C18.9962 32.1217 19.1096 32.067 19.5333 32.1762C22.6574 32.9819 25.6542 32.6603 28.4431 31.0396C31.4307 29.3034 33.2879 26.7137 34.0096 23.3301C34.3214 21.8703 34.3371 20.358 34.0761 18.8865C33.9438 18.1387 33.7546 17.4143 33.4947 16.719C33.3671 16.3774 32.9667 16.2274 32.6468 16.4004L32.6499 16.4009Z" fill="#886442"/>
</g>
<defs>
<clipPath id="clip0_469_3">
<rect width="26.4065" height="29.3405" fill="white" transform="translate(0 15.5479) rotate(-36.0723)"/>
</clipPath>
</defs>
</svg>
