<svg width="38" height="38" viewBox="0 0 38 38" fill="none" xmlns="http://www.w3.org/2000/svg">
<circle cx="19" cy="19" r="18" fill="#FFA3FF" stroke="#E76AE7" stroke-width="2"/>
<path d="M27.4964 18.1716L27.2747 11.9397C27.2497 11.1932 26.4347 10.7535 25.807 11.152L21.9128 13.6226C20.9978 13.3664 20.0204 13.2241 18.9992 13.2241C17.9781 13.2241 17.0006 13.3664 16.0856 13.6226L12.1914 11.1489C11.5669 10.7535 10.7518 11.19 10.7237 11.9366L10.502 18.1684C10.1772 18.934 9.99609 19.7533 9.99609 20.6074C9.99609 24.6881 12.9284 27.997 18.9961 27.997C25.6758 27.997 27.9961 24.6881 27.9961 20.6074C27.9961 19.7533 27.8181 18.9308 27.4902 18.1684L27.4964 18.1716Z" fill="#E76AE7"/>
</svg>
