<svg width="38" height="38" viewBox="0 0 38 38" fill="none" xmlns="http://www.w3.org/2000/svg">
<circle cx="19" cy="19" r="18" fill="#B08FF7" stroke="#7D60CC" stroke-width="2"/>
<path d="M19.0011 10.3382C20.3889 10.3382 21.6297 11.0408 22.3236 12.2151L28.1142 22.0278C28.8081 23.2021 28.8081 24.6072 28.1142 25.7815C27.4203 26.9558 26.1795 27.6584 24.7916 27.6584H13.2105C11.8227 27.6584 10.5819 26.9558 9.88797 25.7815C9.19406 24.6072 9.19406 23.2021 9.88797 22.0278L15.6785 12.2151C16.3724 11.0408 17.6133 10.3382 19.0011 10.3382ZM19.0011 9C17.2475 9 15.4974 9.84978 14.4958 11.546L8.70525 21.3586C6.70214 24.7544 9.20432 28.9967 13.2105 28.9967H24.7882C28.7944 28.9967 31.2966 24.7511 29.2935 21.3586L23.5064 11.546C22.5048 9.84978 20.7512 9 19.0011 9Z" fill="#7D60CC"/>
<path d="M22.6936 19.3379H15.3101C14.9005 19.3379 14.5684 19.6629 14.5684 20.0639V28.2706C14.5684 28.6716 14.9005 28.9966 15.3101 28.9966H22.6936C23.1033 28.9966 23.4354 28.6716 23.4354 28.2706V20.0639C23.4354 19.6629 23.1033 19.3379 22.6936 19.3379Z" fill="#7D60CC"/>
</svg>
