<svg width="45" height="45" viewBox="0 0 45 45" fill="none" xmlns="http://www.w3.org/2000/svg">
<path d="M23.984 39.333C21.5681 38.3645 19.847 36.782 18.6421 35.2059C16.6829 35.5188 14.3436 35.4972 11.9277 34.5287L11.8155 34.4816C9.05694 33.3441 7.49007 30.3928 8.09611 27.4644C8.39269 26.0198 9.05604 23.8253 10.5689 21.7647C9.32677 18.4861 8.98113 14.0114 11.517 8.94261C12.8983 6.17232 16.05 4.8501 18.9981 5.79967C19.3199 5.9081 19.6978 6.04009 20.1041 6.20187C23.3803 7.51218 26.0032 9.65182 27.7556 12.3655C30.9018 11.5955 34.2651 11.8493 37.5551 13.1565C37.9615 13.3183 38.3234 13.4757 38.6407 13.6286C41.4377 14.9676 42.8035 18.0877 41.9069 21.0456C40.2567 26.4722 36.9282 29.4801 33.765 31.0079C33.4374 33.5325 32.41 35.592 31.634 36.8406C30.0555 39.38 26.889 40.4446 24.1153 39.3685L23.9946 39.3161L23.984 39.333Z" fill="white" stroke="#4D6B8F" stroke-miterlimit="10"/>
<path d="M36.4668 18.1448C34.5151 17.209 29.699 15.5656 25.0634 19.1086C24.1445 13.35 19.5191 11.2357 17.4602 10.5634C16.8897 10.3808 16.2526 10.641 15.9832 11.1804C12.4754 18.2019 16.8554 22.6916 16.8554 22.6916C14.1999 24.2205 13.2881 27.015 12.9893 28.4819C12.8735 29.0591 13.171 29.637 13.7149 29.8619C16.9835 31.2029 20.2126 29.6457 21.0445 29.1892C21.3364 30.0946 22.6111 33.4528 25.9002 34.724C26.4494 34.9404 27.0652 34.7141 27.38 34.2151C28.1804 32.9465 29.4287 30.2933 28.5529 27.3523C28.5529 27.3523 34.8197 27.1086 37.1083 19.6018C37.2825 19.0259 37.0116 18.4057 36.4668 18.1448Z" fill="#DBE8FB" stroke="#4D6B8F" stroke-miterlimit="10"/>
</svg>
