<svg width="38" height="38" viewBox="0 0 38 38" fill="none" xmlns="http://www.w3.org/2000/svg">
<path d="M21.0363 2.13701L24.8463 1.74701C26.2163 1.60701 27.5363 2.24701 28.2863 3.39701L30.3663 6.61701L33.6763 8.537C34.8663 9.227 35.5663 10.517 35.4863 11.887L35.2763 15.707L36.8263 19.207C37.3863 20.457 37.1863 21.927 36.3163 22.987L33.8963 25.957L33.0963 29.697C32.8063 31.037 31.7963 32.107 30.4663 32.457L26.7663 33.437L23.9163 35.997C22.8963 36.917 21.4463 37.177 20.1663 36.687L16.5963 35.307L12.7863 35.697C11.4163 35.837 10.0963 35.197 9.34632 34.047L7.26632 30.827L3.95632 28.907C2.76632 28.217 2.06632 26.927 2.14632 25.557L2.35632 21.737L0.806316 18.237C0.246316 16.987 0.446316 15.517 1.31632 14.457L3.73632 11.487L4.53632 7.747C4.82632 6.407 5.83632 5.33701 7.16632 4.98701L10.8663 4.00701L13.7163 1.44701C14.7363 0.527005 16.1863 0.267005 17.4663 0.757005L21.0363 2.13701Z" fill="white" stroke="#4D6B8F" stroke-miterlimit="10"/>
<path d="M27.8456 17.6668C27.1156 12.7368 21.4356 13.1768 19.7856 15.1368C19.6656 15.2768 19.4456 15.2368 19.3956 15.0568C18.6156 12.4468 13.6856 9.8868 11.0356 14.0268C8.3056 18.2868 14.4456 24.0368 16.4756 26.1068C16.8556 26.4968 17.4356 26.6268 17.9456 26.4368C20.6856 25.4268 28.5756 22.5668 27.8556 17.6668H27.8456Z" fill="#DBE8FB" stroke="#4D6B8F" stroke-miterlimit="10"/>
</svg>
