<svg width="24" height="24" viewBox="0 0 24 24" fill="none" xmlns="http://www.w3.org/2000/svg">
<path d="M11.9949 23.4723C18.3337 23.4723 23.4723 18.3337 23.4723 11.9949C23.4723 5.65617 18.3337 0.517578 11.9949 0.517578C5.65617 0.517578 0.517578 5.65617 0.517578 11.9949C0.517578 18.3337 5.65617 23.4723 11.9949 23.4723Z" fill="#04021F" stroke="#99A5FF" stroke-miterlimit="10"/>
<path d="M16.4144 13.6504C15.9901 14.0747 15.4105 14.3334 14.7792 14.3334H14.7275C14.5205 14.3334 14.3549 14.499 14.3549 14.706C14.3549 16.01 13.2682 17.107 11.9746 17.0863C10.6809 17.0656 9.68738 16.0307 9.67703 14.7577V14.706C9.67703 14.499 9.51144 14.3334 9.30445 14.3334C8.00044 14.3334 6.90342 13.2467 6.92412 11.9531C6.94481 10.6594 7.97974 9.66589 9.25271 9.65554H9.30445C9.51144 9.65554 9.67703 9.48995 9.67703 9.28297C9.67703 7.97896 10.7637 6.88193 12.0574 6.90263C13.351 6.92333 14.3446 7.95826 14.3549 9.23122V9.28297C14.3549 9.48995 14.5205 9.65554 14.7275 9.65554C16.0108 9.65554 17.0871 10.6801 17.1078 11.9531C17.1182 12.6154 16.8594 13.2157 16.4248 13.6504H16.4144Z" fill="#99A5FF"/>
</svg>
