<svg width="18" height="23" viewBox="0 0 18 23" fill="none" xmlns="http://www.w3.org/2000/svg">
<g clip-path="url(#clip0_612_9)">
<path d="M12.6006 16.6195C12.7083 16.3542 12.7755 16.0674 12.7944 15.7666C12.8339 15.1472 12.6628 14.555 12.3429 14.0643C12.0226 13.5733 11.5527 13.1805 10.9917 12.9527C10.9909 12.9524 10.9896 12.9521 10.9888 12.9517C11.0221 12.4192 10.9011 11.8919 10.6468 11.4297C10.3385 10.8684 9.83441 10.4006 9.18785 10.1386C8.54145 9.87615 7.85393 9.86052 7.24203 10.0483C6.73758 10.2027 6.28342 10.4968 5.93636 10.902C5.93555 10.9017 5.93441 10.901 5.9332 10.9005C5.37196 10.6731 4.76166 10.6277 4.18982 10.7568C3.61855 10.8858 3.08312 11.1916 2.68001 11.6635C2.48406 11.8923 2.33245 12.1451 2.22491 12.4102C1.88972 13.2377 1.98323 14.1841 2.47349 14.949C2.2802 15.1748 2.12729 15.4272 2.01846 15.6955C1.85627 16.0954 1.79036 16.5301 1.82843 16.9657C1.86645 17.4008 2.00996 17.8372 2.26449 18.2342C2.59967 18.7577 3.08302 19.1417 3.62379 19.3608C4.17968 19.5863 4.79964 19.6382 5.39181 19.4984C5.71978 20.0112 6.19998 20.4058 6.75587 20.6313C7.29648 20.8509 7.91013 20.9119 8.51597 20.7699C8.9752 20.6623 9.38171 20.4491 9.71252 20.1636C10.043 19.8777 10.2986 19.5194 10.4607 19.1198C10.57 18.8515 10.6356 18.5641 10.6542 18.2675C11.539 18.0608 12.2655 17.447 12.6015 16.6196L12.6006 16.6195Z" fill="white"/>
</g>
<g clip-path="url(#clip1_612_9)">
<path d="M16.2521 4.26016C16.3055 4.12851 16.3389 3.98621 16.3483 3.83693C16.3679 3.52959 16.283 3.23571 16.1242 2.99223C15.9653 2.74858 15.7322 2.55369 15.4537 2.44064C15.4533 2.44047 15.4527 2.44033 15.4523 2.44016C15.4688 2.17592 15.4088 1.91424 15.2826 1.68489C15.1296 1.40637 14.8795 1.17427 14.5587 1.04424C14.2379 0.914012 13.8968 0.906258 13.5931 0.999443C13.3428 1.07607 13.1174 1.22198 12.9452 1.42308C12.9448 1.42291 12.9443 1.42257 12.9437 1.42233C12.6652 1.30947 12.3623 1.28694 12.0786 1.35103C11.7951 1.415 11.5294 1.56678 11.3294 1.80094C11.2321 1.91447 11.1569 2.03989 11.1035 2.17145C10.9372 2.58205 10.9836 3.05171 11.2269 3.43126C11.131 3.54327 11.0551 3.66855 11.0011 3.80167C10.9206 4.00008 10.8879 4.21582 10.9068 4.43197C10.9257 4.64788 10.9969 4.86439 11.1232 5.06142C11.2895 5.32119 11.5294 5.51172 11.7977 5.62046C12.0735 5.73235 12.3812 5.75808 12.675 5.68874C12.8378 5.94318 13.076 6.13901 13.3519 6.2509C13.6201 6.35983 13.9246 6.3901 14.2253 6.31964C14.4531 6.26628 14.6549 6.16048 14.819 6.0188C14.983 5.87695 15.1098 5.69916 15.1903 5.50085C15.2445 5.36771 15.2771 5.22509 15.2863 5.07791C15.7253 4.97537 16.0858 4.67076 16.2526 4.26022L16.2521 4.26016Z" fill="white"/>
</g>
<defs>
<clipPath id="clip0_612_9">
<rect width="11.1973" height="10.6374" fill="white" transform="translate(4 8.03418) rotate(22.0795)"/>
</clipPath>
<clipPath id="clip1_612_9">
<rect width="5.55625" height="5.27844" fill="white" transform="translate(11.9844) rotate(22.0795)"/>
</clipPath>
</defs>
</svg>
