<svg width="46" height="46" viewBox="0 0 46 46" fill="none" xmlns="http://www.w3.org/2000/svg">
<g clip-path="url(#clip0_612_10)">
<path d="M24.8125 12.9809C24.8891 12.3817 24.8734 11.7607 24.7535 11.1372C24.508 9.85338 23.8544 8.73925 22.9558 7.91305C22.0563 7.08628 20.9085 6.54112 19.6643 6.38166C19.6625 6.38143 19.6598 6.38153 19.658 6.3813C19.4455 5.27783 18.9265 4.26874 18.1743 3.46487C17.262 2.4884 16.0062 1.80899 14.5728 1.62625C13.1395 1.44262 11.7532 1.78438 10.6251 2.49965C9.69498 3.08852 8.93883 3.93463 8.45571 4.94922C8.45391 4.94899 8.45127 4.9482 8.44857 4.94785C7.20431 4.78929 5.95718 5.02838 4.87869 5.60237C3.80122 6.17558 2.88838 7.08997 2.32784 8.2708C2.05507 8.84362 1.88371 9.44116 1.80719 10.04C1.56929 11.9086 2.2531 13.7869 3.63694 15.0795C3.36789 15.6446 3.19378 16.2422 3.11635 16.8482C3.00093 17.7513 3.09683 18.6732 3.40158 19.5404C3.706 20.4065 4.22247 21.2179 4.94092 21.8888C5.88732 22.7737 7.05754 23.2936 8.25642 23.4464C9.48894 23.6039 10.7588 23.3727 11.8725 22.7661C12.7988 23.633 13.9683 24.1764 15.2009 24.3339C16.3996 24.4875 17.6616 24.2784 18.8016 23.6598C19.6657 23.191 20.3687 22.5356 20.882 21.7739C21.3946 21.0116 21.7189 20.1425 21.8343 19.2398C21.9127 18.6336 21.8934 18.0121 21.7752 17.3975C23.4404 16.4955 24.5746 14.8496 24.8143 12.9807L24.8125 12.9809Z" fill="white" fill-opacity="0.3"/>
</g>
<g clip-path="url(#clip1_612_10)">
<path d="M42.837 38.4728C42.9808 38.1182 43.0707 37.735 43.0959 37.333C43.1488 36.5053 42.9201 35.7139 42.4926 35.0582C42.0646 34.402 41.4367 33.8772 40.6869 33.5727C40.6858 33.5723 40.6841 33.5719 40.683 33.5715C40.7276 32.8598 40.5659 32.1551 40.2261 31.5375C39.8141 30.7874 39.1404 30.1623 38.2764 29.8122C37.4126 29.4615 36.4939 29.4406 35.6762 29.6915C35.0021 29.8979 34.3951 30.2908 33.9314 30.8324C33.9303 30.832 33.9288 30.831 33.9271 30.8304C33.1771 30.5265 32.3616 30.4658 31.5974 30.6384C30.834 30.8107 30.1185 31.2194 29.5798 31.85C29.318 32.1557 29.1154 32.4935 28.9716 32.8478C28.5237 33.9536 28.6487 35.2184 29.3038 36.2405C29.0455 36.5422 28.8412 36.8795 28.6958 37.238C28.479 37.7724 28.3909 38.3534 28.4418 38.9355C28.4926 39.5169 28.6844 40.1 29.0245 40.6306C29.4725 41.3302 30.1184 41.8433 30.841 42.1361C31.5839 42.4374 32.4123 42.5067 33.2037 42.32C33.6419 43.0052 34.2836 43.5326 35.0265 43.8339C35.7489 44.1273 36.569 44.2088 37.3786 44.019C37.9922 43.8753 38.5355 43.5904 38.9775 43.2089C39.4192 42.8269 39.7607 42.3481 39.9773 41.814C40.1234 41.4554 40.2111 41.0714 40.2359 40.675C41.4183 40.3989 42.3891 39.5785 42.8382 38.4729L42.837 38.4728Z" fill="white" fill-opacity="0.3"/>
</g>
<defs>
<clipPath id="clip0_612_10">
<rect width="23.193" height="22.4448" fill="white" transform="translate(3.07031 0.15625) rotate(7.28285)"/>
</clipPath>
<clipPath id="clip1_612_10">
<rect width="14.9632" height="14.215" fill="white" transform="translate(31.3438 27) rotate(22.0795)"/>
</clipPath>
</defs>
</svg>
