<svg width="17" height="16" viewBox="0 0 17 16" fill="none" xmlns="http://www.w3.org/2000/svg">
<g clip-path="url(#clip0_578_6)">
<path d="M16.9997 7.10364C16.9997 6.67299 16.9306 6.2353 16.7855 5.80529C16.4877 4.91965 15.9089 4.19091 15.1788 3.6879C14.448 3.18457 13.5628 2.9028 12.6434 2.90248C12.6421 2.90248 12.6401 2.9028 12.6388 2.9028C12.3818 2.14172 11.9106 1.4751 11.2891 0.974646C10.535 0.366613 9.55885 -0.000319976 8.49967 2.09373e-07C7.44049 -0.000319976 6.46432 0.366613 5.71061 0.974325C5.08904 1.47478 4.61789 2.1414 4.3609 2.90248C4.35957 2.90248 4.35758 2.90216 4.35559 2.90216C3.43619 2.90248 2.55166 3.18425 1.82086 3.68758C1.09072 4.19027 0.511992 4.91933 0.21416 5.80497C0.0690625 6.23466 0 6.67267 0 7.103C0.000664063 8.44586 0.672363 9.71219 1.79861 10.5011C1.65551 10.9251 1.58445 11.3634 1.58445 11.7988C1.58445 12.4479 1.73984 13.0911 2.04199 13.6767C2.34381 14.2617 2.79471 14.7887 3.37941 15.1983C4.14973 15.7384 5.04887 16.0003 5.93473 16C6.84549 16 7.74728 15.7218 8.50066 15.1922C9.25471 15.7214 10.1555 16 11.0663 16C11.9521 16.0003 12.8503 15.7384 13.6216 15.1979C14.2063 14.7884 14.6565 14.2614 14.959 13.6764C15.2608 13.0911 15.4159 12.4472 15.4159 11.7985C15.4165 11.3628 15.3448 10.9251 15.2017 10.5011C16.3286 9.71283 17.0003 8.4465 17.001 7.10332L16.9997 7.10364Z" fill="white"/>
</g>
<defs>
<clipPath id="clip0_578_6">
<rect width="17" height="16" fill="white"/>
</clipPath>
</defs>
</svg>
